<svg width="24" height="24" viewBox="0 0 24 24" fill="none" xmlns="http://www.w3.org/2000/svg">
<path d="M12.5097 13.4948C12.5557 12.5099 12.9477 11.6407 13.5397 11.0252C14.1608 10.39 14.9443 10.0456 15.7517 10.0526C16.6017 10.0526 17.3827 10.4219 17.9627 11.0252C18.5547 11.6407 18.9457 12.5099 18.9907 13.4936C19.0357 14.5068 18.7057 15.4461 18.1257 16.1441C17.4869 16.8953 16.6351 17.3096 15.7517 17.2989C14.8678 17.3097 14.0153 16.8954 13.3757 16.1441C12.7957 15.4461 12.4657 14.5068 12.5107 13.4948H12.5097ZM7.34972 15.4855C7.35572 15.8721 7.45572 16.6206 7.60572 17.2066C7.92954 18.4673 8.47322 19.6257 9.19872 20.6007C9.97677 21.6539 10.9264 22.4933 11.9857 23.0642C13.1386 23.6898 14.3858 24.0087 15.6457 23.9998C16.9054 24.0029 18.1515 23.679 19.3027 23.0494C20.3613 22.4731 21.31 21.6302 22.0877 20.5749C22.812 19.5966 23.3552 18.4365 23.6797 17.1746C23.9918 15.9519 24.0772 14.6588 23.9297 13.3901C23.7893 12.1747 23.4432 11.0092 22.9137 9.96889C22.4232 9.00118 21.796 8.14936 21.0617 7.45374H21.0637L13.5657 0.366257L13.5457 0.34779C13.0537 -0.117568 12.2267 -0.115106 11.6857 0.350252C11.1387 0.820535 11.0767 1.59983 11.5627 2.09227L11.5617 2.0935L14.6877 5.22421L5.15772 5.23652H5.14472C4.35672 5.23775 3.59972 5.87423 3.44972 6.67937C3.29572 7.49806 3.82972 8.17763 4.64972 8.18132V8.18379L9.47972 8.17148L0.859723 16.3177L0.825723 16.3485C0.0127227 17.1142 -0.249277 18.3897 0.262723 19.196C0.782723 20.0172 1.88772 20.0184 2.70972 19.201L7.41372 14.4624C7.41372 14.4624 7.34472 15.1026 7.35072 15.4855H7.34972ZM19.4397 17.6288C18.4697 18.8452 17.1137 19.5346 15.6447 19.5371C14.1747 19.542 12.8177 18.8575 11.8477 17.6436C11.3897 17.0775 11.0363 16.3964 10.8117 15.6468C10.6059 14.9415 10.5246 14.1902 10.5732 13.4432C10.6218 12.6961 10.7993 11.9704 11.0937 11.3145C11.3866 10.6661 11.7781 10.0931 12.2467 9.62664C13.1887 8.68115 14.3877 8.17025 15.6427 8.16778C16.8987 8.16532 18.0977 8.67254 19.0407 9.61433C19.5207 10.0957 19.9107 10.6657 20.1927 11.2973C20.4846 11.9444 20.6625 12.6601 20.7147 13.3975C20.7677 14.1533 20.6862 14.9141 20.4757 15.6271C20.2511 16.3778 19.8981 17.0605 19.4407 17.6288" fill="#00C6D2"/>
</svg>
