<svg width="32" height="24" viewBox="0 0 32 24" fill="none" xmlns="http://www.w3.org/2000/svg">
<path d="M6.42785 18.536C5.51685 18.536 4.68885 17.792 4.68885 16.885C4.68885 15.978 5.43285 15.229 6.42785 15.229C7.42785 15.229 8.17885 15.974 8.17885 16.885C8.17885 17.792 7.34585 18.536 6.43385 18.536H6.42785ZM27.7768 9.521C27.5938 8.198 26.7768 7.12 25.6978 6.297L25.2768 5.964L24.9378 6.375C24.2818 7.12 24.0168 8.443 24.0988 9.432C24.1778 10.183 24.4158 10.927 24.8388 11.505C24.4948 11.682 24.0788 11.838 23.7548 12.01C22.9948 12.259 22.2548 12.343 21.5158 12.343H0.130848L0.0468484 12.832C-0.114904 14.4451 0.143827 16.0726 0.797848 17.556L1.12585 18.135V18.212C3.12585 21.525 6.68285 23.015 10.5628 23.015C18.0218 23.015 24.1358 19.791 27.0358 12.838C28.9368 12.921 30.8548 12.426 31.7548 10.603L31.9948 10.192L31.5988 9.941C30.5158 9.28 29.0359 9.192 27.7978 9.525L27.7708 9.53L27.7768 9.521ZM17.0998 8.198H13.8608V11.426H17.0998V8.198ZM17.0998 4.141H13.8608V7.369H17.0998V4.141ZM17.0998 0H13.8608V3.229H17.0998V0ZM21.0578 8.198H17.8388V11.426H21.0678V8.198H21.0578ZM9.06385 8.198H5.84485V11.426H9.07385V8.198H9.06385ZM13.0998 8.198H9.90285V11.426H13.1218V8.198H13.0998ZM5.06385 8.198H1.86485V11.426H5.10485V8.198H5.06385ZM13.0998 4.141H9.90285V7.369H13.1218V4.145L13.0998 4.141ZM9.04185 4.141H5.84985V7.369H9.06885V4.145L9.04785 4.141H9.04185Z" fill="#00C6D2"/>
</svg>
