<svg width="20" height="24" viewBox="0 0 20 24" fill="none" xmlns="http://www.w3.org/2000/svg">
<path d="M17.9215 16.734C18.1482 16.8248 18.3436 16.9796 18.484 17.1795C18.61 17.367 18.6985 17.5935 18.754 17.859C18.784 18.015 18.82 18.159 18.859 18.294C18.9325 18.547 19.0432 18.7876 19.1875 19.008C19.258 19.1175 19.3525 19.2375 19.4695 19.371C19.57 19.4805 19.66 19.6215 19.7395 19.7925C19.8128 19.9463 19.8522 20.1141 19.855 20.2845C19.8608 20.4483 19.8117 20.6093 19.7155 20.742C19.6176 20.8708 19.4984 20.9819 19.363 21.0705C19.183 21.195 18.9955 21.3045 18.8005 21.399C18.6055 21.492 18.4105 21.5895 18.2155 21.6915C17.9239 21.8304 17.6453 21.9951 17.383 22.1835C17.149 22.356 16.9135 22.5735 16.6795 22.8405C16.4067 23.1461 16.0909 23.4104 15.742 23.625C15.5638 23.738 15.3704 23.8249 15.1675 23.883C14.9725 23.937 14.7775 23.973 14.5825 23.988C14.1295 23.988 13.7545 23.91 13.4575 23.754C13.1605 23.598 12.9025 23.313 12.6835 22.899C12.6205 22.7805 12.559 22.707 12.496 22.6755C12.3987 22.6343 12.2963 22.6065 12.1915 22.593L11.005 22.5C10.615 22.47 10.2175 22.4535 9.811 22.4535C9.47339 22.454 9.13635 22.481 8.803 22.5345C8.4595 22.59 8.119 22.656 7.783 22.734C7.714 22.749 7.6435 22.809 7.573 22.9095C7.48522 23.0314 7.38684 23.1454 7.279 23.25C7.13287 23.3891 6.96258 23.5005 6.7765 23.5785C6.51133 23.6821 6.22866 23.7335 5.944 23.73C5.686 23.73 5.4085 23.703 5.1115 23.649C4.83365 23.6007 4.56496 23.5096 4.315 23.379C3.8641 23.1484 3.38283 22.9827 2.8855 22.887C2.416 22.8015 1.921 22.722 1.3975 22.653C1.22399 22.6304 1.05176 22.5989 0.881501 22.5585C0.72422 22.5229 0.576074 22.455 0.446501 22.359C0.327598 22.2711 0.228464 22.1591 0.155502 22.0305C0.0755129 21.8666 0.0349335 21.6863 0.0370015 21.504C0.0370015 21.261 0.0685015 21.027 0.131501 20.8005C0.194501 20.5755 0.229002 20.3355 0.236502 20.0865C0.236502 19.914 0.224502 19.746 0.202002 19.5825C0.177195 19.4074 0.161175 19.2312 0.154001 19.0545C0.154001 18.657 0.248501 18.3645 0.436001 18.1755C0.623501 17.988 0.896501 17.8395 1.2565 17.73C1.41643 17.6816 1.56705 17.6065 1.702 17.508C1.8258 17.4146 1.94307 17.3129 2.053 17.2035C2.16461 17.0914 2.26648 16.9699 2.3575 16.8405C2.452 16.707 2.557 16.5735 2.674 16.4415C2.69734 16.4115 2.71001 16.3745 2.71 16.3365C2.71 16.242 2.7055 16.152 2.698 16.0665L2.674 15.7845C2.674 15.2535 2.7565 14.7195 2.92 14.1795C3.085 13.6395 3.2995 13.1145 3.565 12.597C3.83009 12.0826 4.12769 11.5856 4.456 11.109C4.783 10.6335 5.1085 10.191 5.428 9.7845C5.86198 9.24119 6.20632 8.63201 6.448 7.98C6.673 7.356 6.7915 6.675 6.799 5.94C6.799 5.6295 6.784 5.3205 6.7525 5.016C6.72103 4.7045 6.70551 4.39159 6.706 4.0785C6.706 3.453 6.7765 2.8905 6.916 2.391C7.057 1.89 7.276 1.461 7.573 1.101C7.87 0.741 8.257 0.4725 8.7325 0.2925C9.211 0.1125 9.781 0.015 10.444 0C11.2345 0 11.863 0.156 12.3325 0.4695C12.8005 0.7815 13.1605 1.191 13.4095 1.6995C13.66 2.2065 13.8205 2.7735 13.8895 3.399C13.9615 4.023 14.0005 4.656 14.008 5.2965V5.496C14.008 5.817 14.011 6.102 14.02 6.351C14.034 6.85724 14.1492 7.35555 14.359 7.8165C14.4685 8.058 14.632 8.3205 14.851 8.601C15.226 9.0945 15.61 9.591 16 10.0905C16.39 10.59 16.7455 11.106 17.065 11.6355C17.386 12.168 17.6485 12.723 17.851 13.3005C18.055 13.8795 18.16 14.5035 18.1675 15.1755C18.1695 15.7053 18.0865 16.232 17.9215 16.7355V16.734ZM8.0905 4.524C8.1985 4.524 8.2885 4.551 8.3605 4.605C8.43365 4.66388 8.49004 4.74095 8.524 4.8285C8.56165 4.91859 8.58883 5.01271 8.605 5.109C8.62 5.2035 8.629 5.301 8.629 5.403C8.63145 5.46743 8.61913 5.53156 8.593 5.5905C8.5673 5.6403 8.53155 5.68423 8.488 5.7195L8.347 5.8365C8.29673 5.87907 8.25007 5.92573 8.2075 5.976C8.15125 6.06358 8.07454 6.13616 7.984 6.1875C7.89111 6.24142 7.80099 6.3 7.714 6.363C7.63091 6.42329 7.55267 6.48999 7.48 6.5625C7.44368 6.60166 7.41565 6.64775 7.39761 6.69802C7.37956 6.74829 7.37187 6.80168 7.375 6.855C7.375 6.9255 7.4095 6.984 7.48 7.0305C7.65491 7.14066 7.79365 7.29974 7.879 7.488C7.957 7.668 8.044 7.8435 8.137 8.016C8.23 8.187 8.3515 8.331 8.5 8.4495C8.6485 8.5665 8.8795 8.625 9.19 8.625H9.262C9.574 8.61 9.871 8.5275 10.153 8.379C10.4335 8.2305 10.7155 8.0745 10.996 7.9095C11.0449 7.88203 11.0961 7.85894 11.149 7.8405C11.2035 7.82106 11.2546 7.79323 11.3005 7.758L12.1555 7.0905C12.1704 7.04022 12.1824 6.98914 12.1915 6.9375C12.2006 6.88267 12.2086 6.82766 12.2155 6.7725C12.2181 6.69793 12.1971 6.62443 12.1555 6.5625C12.1171 6.50809 12.07 6.46044 12.016 6.4215C11.956 6.38061 11.888 6.35299 11.8165 6.3405C11.745 6.32615 11.6748 6.30608 11.6065 6.2805C11.4195 6.24206 11.2408 6.17098 11.0785 6.0705C10.9174 5.97044 10.7439 5.89178 10.5625 5.8365C10.5325 5.8275 10.5085 5.805 10.492 5.766C10.4741 5.71981 10.4586 5.67275 10.4455 5.625C10.4301 5.57555 10.426 5.52325 10.4335 5.472C10.442 5.43272 10.4378 5.39173 10.4215 5.355C10.4215 5.262 10.429 5.1645 10.4455 5.0625C10.4617 4.95924 10.4973 4.85998 10.5505 4.77C10.5962 4.68666 10.6604 4.61484 10.738 4.56C10.8305 4.50603 10.9354 4.47708 11.0425 4.476C11.2855 4.476 11.461 4.566 11.5705 4.746C11.68 4.926 11.7385 5.121 11.746 5.331C11.7479 5.42434 11.7279 5.51683 11.6875 5.601C11.6475 5.68108 11.6269 5.76947 11.6275 5.859C11.6275 5.922 11.6485 5.964 11.6875 5.988C11.7347 6.0139 11.7868 6.02973 11.8405 6.0345C12.0205 6.0345 12.136 5.9925 12.1915 5.907C12.2546 5.7879 12.2866 5.65478 12.2845 5.52C12.2845 5.34 12.2695 5.1405 12.2395 4.9215C12.2098 4.70962 12.146 4.50396 12.0505 4.3125C11.9631 4.1327 11.8395 3.97287 11.6875 3.843C11.5247 3.71368 11.3207 3.64761 11.113 3.657C10.708 3.657 10.414 3.7575 10.234 3.9615C10.054 4.164 9.961 4.4685 9.9535 4.875C9.9535 4.992 9.961 5.109 9.976 5.226C9.991 5.3445 10 5.4615 10 5.5785C10 5.6175 9.9955 5.637 9.988 5.637C9.96367 5.63171 9.94001 5.62366 9.9175 5.613C9.87077 5.59405 9.82427 5.57455 9.778 5.5545C9.72066 5.53029 9.66147 5.51072 9.601 5.496C9.50131 5.47178 9.39779 5.4677 9.2965 5.484C9.23431 5.49189 9.17169 5.49589 9.109 5.496C8.9995 5.496 8.944 5.4765 8.944 5.4375C8.944 5.3205 8.938 5.172 8.9215 4.992C8.9065 4.812 8.8675 4.632 8.8045 4.452C8.75212 4.29185 8.67301 4.14173 8.5705 4.008C8.476 3.891 8.3365 3.828 8.149 3.8205C8.02305 3.81759 7.90091 3.86386 7.8085 3.9495C7.71222 4.03858 7.62936 4.14115 7.5625 4.254C7.49062 4.37587 7.44657 4.51212 7.4335 4.653C7.42092 4.77834 7.40542 4.90338 7.387 5.028C7.39302 5.23494 7.42837 5.43999 7.492 5.637C7.531 5.7615 7.5745 5.871 7.621 5.9655C7.6675 6.0585 7.723 6.105 7.786 6.105C7.8235 6.105 7.876 6.078 7.9375 6.024C8.0005 5.9685 8.032 5.919 8.032 5.871C8.032 5.847 8.02 5.832 7.996 5.8245C7.97331 5.81669 7.9495 5.81264 7.9255 5.8125C7.8715 5.8125 7.8235 5.7855 7.7845 5.73C7.74431 5.6725 7.71296 5.6093 7.6915 5.5425C7.66689 5.46886 7.64338 5.39485 7.621 5.3205C7.57428 5.11812 7.60365 4.90563 7.7035 4.7235C7.774 4.5975 7.903 4.5315 8.0905 4.524ZM5.5345 22.77C5.722 22.77 5.9065 22.755 6.0865 22.722C6.26469 22.6914 6.43561 22.6278 6.5905 22.5345C6.73903 22.4486 6.8606 22.3228 6.9415 22.1715C7.02684 21.9958 7.07485 21.8042 7.0825 21.609C7.08251 21.4695 7.05867 21.331 7.012 21.1995C6.96434 21.0654 6.89712 20.939 6.8125 20.8245C6.71992 20.6778 6.61822 20.537 6.508 20.403C6.39773 20.2685 6.29603 20.1272 6.2035 19.98C6.05762 19.7656 5.91261 19.5506 5.7685 19.335C5.629 19.125 5.488 18.903 5.3485 18.6675C5.22516 18.4679 5.10761 18.2649 4.996 18.0585C4.88131 17.8479 4.74777 17.648 4.597 17.4615C4.50179 17.3426 4.39192 17.2363 4.27 17.145C4.14475 17.0509 3.99166 17.0012 3.835 17.004C3.67158 17.0016 3.51319 17.0605 3.391 17.169C3.25136 17.2907 3.12192 17.4237 3.004 17.5665C2.86569 17.7286 2.71687 17.8814 2.5585 18.024C2.3935 18.1725 2.1835 18.2895 1.9255 18.375C1.75091 18.4218 1.5903 18.5104 1.4575 18.633C1.348 18.7425 1.2925 18.9105 1.2925 19.137C1.2925 19.293 1.3045 19.449 1.3285 19.605C1.351 19.761 1.3675 19.9185 1.375 20.0745C1.375 20.2845 1.345 20.484 1.2805 20.6715C1.22 20.8488 1.18859 21.0347 1.1875 21.222C1.1875 21.4335 1.2625 21.582 1.4095 21.6675C1.5595 21.7545 1.726 21.813 1.9135 21.843C2.149 21.8835 2.371 21.9135 2.5825 21.9375C2.7925 21.9615 2.9995 21.9975 3.2035 22.0425C3.406 22.0905 3.6085 22.14 3.8125 22.1955C4.015 22.2495 4.231 22.3365 4.4575 22.4535C4.5025 22.476 4.5745 22.5045 4.6675 22.5345L4.984 22.6395C5.101 22.68 5.2105 22.7115 5.3125 22.734C5.38509 22.7535 5.45947 22.7655 5.5345 22.77ZM9.8245 21.363C10.0435 21.363 10.2775 21.3405 10.528 21.2925C11.038 21.1969 11.5312 21.0271 11.992 20.7885C12.2065 20.6791 12.4104 20.5501 12.601 20.403C12.62 20.3817 12.6361 20.358 12.649 20.3325C12.6639 20.3024 12.6755 20.2707 12.6835 20.238V20.226C12.73 20.055 12.769 19.866 12.8005 19.6635C12.833 19.4572 12.8605 19.2501 12.883 19.0425C12.9057 18.8349 12.9332 18.6278 12.9655 18.4215C12.9955 18.219 13.024 18.0195 13.0465 17.8245C13.078 17.6145 13.117 17.4105 13.1635 17.2155C13.2115 17.0205 13.273 16.836 13.351 16.6635C13.4281 16.4936 13.5353 16.3391 13.6675 16.2075C13.8213 16.0592 13.995 15.933 14.1835 15.8325V15.8085L14.1715 15.774C14.1741 15.6945 14.1985 15.6171 14.242 15.5505C14.2945 15.4644 14.3532 15.3822 14.4175 15.3045C14.4799 15.2256 14.5556 15.1581 14.641 15.105C14.7191 15.0582 14.8014 15.019 14.887 14.988C14.8397 14.7995 14.7887 14.612 14.734 14.4255C14.6797 14.2399 14.6326 14.0523 14.593 13.863C14.5546 13.6235 14.5081 13.3853 14.4535 13.149C14.41 12.9657 14.3549 12.7853 14.2885 12.609C14.2214 12.4372 14.1305 12.2756 14.0185 12.129C13.903 11.973 13.7575 11.784 13.5865 11.5665C13.5212 11.4935 13.462 11.4152 13.4095 11.3325C13.3688 11.2395 13.3454 11.1399 13.3405 11.0385C13.3218 10.9359 13.2983 10.8343 13.27 10.734C13.1646 10.3541 13.0435 9.97881 12.907 9.609C12.8349 9.41154 12.7487 9.21954 12.649 9.0345C12.5693 8.88633 12.4832 8.74169 12.391 8.601C12.313 8.484 12.2305 8.4255 12.145 8.4255C11.9575 8.4255 11.734 8.5005 11.476 8.649C11.2195 8.7975 10.945 8.961 10.657 9.141C10.3675 9.321 10.087 9.489 9.8125 9.645C9.5395 9.801 9.2935 9.8745 9.0745 9.867C8.84079 9.86685 8.6138 9.78872 8.4295 9.645C8.23085 9.49364 8.04973 9.32057 7.8895 9.129C7.726 8.934 7.5895 8.766 7.48 8.625C7.3705 8.484 7.2895 8.406 7.234 8.391C7.1725 8.391 7.1365 8.4375 7.129 8.5305C7.12065 8.63579 7.11665 8.74138 7.117 8.847V9.0465C7.117 9.0945 7.1095 9.1245 7.093 9.141C7.0075 9.321 6.913 9.4965 6.8125 9.6675C6.7105 9.84 6.61 10.0155 6.508 10.1955C6.30595 10.5414 6.19307 10.9321 6.1795 11.3325C6.1795 11.4495 6.187 11.5665 6.2035 11.6835C6.2185 11.8005 6.2575 11.9145 6.3205 12.024L6.2965 12.069C6.23628 12.1526 6.16957 12.2314 6.097 12.3045C6.02309 12.3798 5.95677 12.4622 5.899 12.5505C5.61208 12.9744 5.40517 13.4471 5.2885 13.9455C5.1715 14.445 5.1085 14.9535 5.101 15.468C5.101 15.6015 5.11 15.735 5.125 15.867C5.14 16.0005 5.149 16.1325 5.149 16.266C5.14854 16.3093 5.14453 16.3524 5.137 16.395C5.12946 16.4376 5.12545 16.4807 5.125 16.524C5.29174 16.5428 5.45215 16.5987 5.5945 16.6875C5.7745 16.7895 5.9695 16.9185 6.1795 17.0745C6.3895 17.2305 6.5905 17.4105 6.778 17.6145C6.9655 17.817 7.144 18.015 7.3165 18.2115C7.489 18.4065 7.6135 18.6015 7.6915 18.7965C7.7695 18.9915 7.8205 19.152 7.843 19.2765C7.84703 19.3672 7.83248 19.4578 7.80024 19.5426C7.76799 19.6275 7.71874 19.7049 7.6555 19.77C7.52098 19.9012 7.36196 20.0047 7.1875 20.0745C7.321 20.3085 7.4845 20.508 7.6795 20.6715C7.8745 20.8365 8.086 20.9685 8.3125 21.0705C8.539 21.1725 8.785 21.246 9.0505 21.2925C9.316 21.3405 9.5755 21.363 9.8245 21.363ZM14.524 23.028C14.6875 23.028 14.848 23.004 15.004 22.9575C15.2404 22.8897 15.4654 22.7871 15.6715 22.653C15.8755 22.5195 16.0615 22.356 16.234 22.1595C16.6415 21.6894 17.14 21.3067 17.6995 21.0345L18.0865 20.859C18.2193 20.8011 18.3481 20.7345 18.472 20.6595C18.5615 20.6028 18.6445 20.5364 18.7195 20.4615C18.7572 20.425 18.7871 20.3811 18.8072 20.3326C18.8274 20.2841 18.8373 20.232 18.8365 20.1795C18.8366 20.1192 18.8243 20.0594 18.8005 20.004C18.7725 19.9416 18.7373 19.8827 18.6955 19.8285C18.5886 19.6797 18.487 19.5271 18.391 19.371C18.3041 19.229 18.2294 19.08 18.1675 18.9255L17.98 18.4575C17.9124 18.2857 17.8572 18.1092 17.815 17.9295C17.7987 17.874 17.7712 17.8224 17.734 17.778C17.6586 17.6653 17.5556 17.5737 17.4349 17.512C17.3141 17.4503 17.1795 17.4205 17.044 17.4255C16.9041 17.425 16.7665 17.4612 16.645 17.5305L16.246 17.754C16.1071 17.831 15.9666 17.9051 15.8245 17.976C15.6863 18.0455 15.5337 18.0815 15.379 18.081C15.2407 18.087 15.1044 18.0464 14.992 17.9655C14.8842 17.8799 14.7962 17.7719 14.734 17.649C14.6673 17.5239 14.6087 17.3946 14.5585 17.262L14.4175 16.875C14.3564 16.9753 14.2861 17.0697 14.2075 17.157C14.1272 17.2464 14.0637 17.3495 14.02 17.4615C13.918 17.6955 13.855 17.9565 13.8325 18.246C13.7935 18.699 13.7425 19.14 13.6795 19.5705C13.6153 20.0095 13.5099 20.4414 13.3645 20.8605C13.323 20.9945 13.2915 21.1314 13.27 21.27C13.2467 21.4136 13.2307 21.5583 13.222 21.7035C13.222 22.086 13.3405 22.4025 13.5745 22.653C13.8085 22.902 14.125 23.028 14.524 23.028Z" fill="#00C6D2"/>
</svg>
