<svg width="42" height="42" viewBox="0 0 42 42" fill="none" xmlns="http://www.w3.org/2000/svg">
<path fill-rule="evenodd" clip-rule="evenodd" d="M4.2 42H37.8C38.9139 42 39.9822 41.5083 40.7698 40.6332C41.5575 39.758 42 38.571 42 37.3333V4.66667C42 3.42899 41.5575 2.242 40.7698 1.36683C39.9822 0.491665 38.9139 0 37.8 0H4.2C3.08609 0 2.0178 0.491665 1.23015 1.36683C0.442499 2.242 0 3.42899 0 4.66667V37.3333C0 38.571 0.442499 39.758 1.23015 40.6332C2.0178 41.5083 3.08609 42 4.2 42ZM4.2 37.3333V9.33333H37.8V37.3333H4.2ZM26.81 18.9389L25.24 20.5089L29.37 24.6389C30.15 25.4189 30.15 26.6889 29.37 27.4689L27.47 29.3689C26.87 29.9689 25.59 30.3189 24.64 29.3689L20.51 25.2389L15.75 29.9989H12V26.2489L16.75 21.4889L12.62 17.3589C11.84 16.5789 11.84 15.3089 12.62 14.5289L14.52 12.6289C15.3 11.8489 16.57 11.8489 17.35 12.6289L21.49 16.7589L23.06 15.1889L26.81 18.9389ZM14.04 15.9389L18.18 20.0689L20.07 18.1689L18.62 16.7189L17.43 17.9089L16.02 16.4989L17.2 15.3089L15.93 14.0389L14.04 15.9389ZM21.93 23.8289L26.06 27.9589L27.96 26.0589L26.69 24.7889L25.5 25.9789L24.09 24.5689L25.28 23.3789L23.83 21.9289L21.93 23.8289ZM29.9264 15.7155C29.8762 15.8365 29.8027 15.9464 29.71 16.0389L27.88 17.8689L24.13 14.1189L25.96 12.2889C26.25 11.9989 26.9 11.8189 27.37 12.2889L29.71 14.6289C29.8027 14.7214 29.8762 14.8313 29.9264 14.9523C29.9766 15.0732 30.0024 15.2029 30.0024 15.3339C30.0024 15.4649 29.9766 15.5945 29.9264 15.7155Z" fill="#FFFADE"/>
</svg>
