<svg width="24" height="21" viewBox="0 0 24 21" fill="none" xmlns="http://www.w3.org/2000/svg">
<path d="M0 3C0 2.20435 0.316071 1.44129 0.87868 0.87868C1.44129 0.316071 2.20435 0 3 0H21C21.7956 0 22.5587 0.316071 23.1213 0.87868C23.6839 1.44129 24 2.20435 24 3V18C24 18.7956 23.6839 19.5587 23.1213 20.1213C22.5587 20.6839 21.7956 21 21 21H3C2.20435 21 1.44129 20.6839 0.87868 20.1213C0.316071 19.5587 0 18.7956 0 18V3ZM14.25 11.25H9.75C9.55109 11.25 9.36032 11.329 9.21967 11.4697C9.07902 11.6103 9 11.8011 9 12C9 12.1989 9.07902 12.3897 9.21967 12.5303C9.36032 12.671 9.55109 12.75 9.75 12.75H14.25C14.4489 12.75 14.6397 12.671 14.7803 12.5303C14.921 12.3897 15 12.1989 15 12C15 11.8011 14.921 11.6103 14.7803 11.4697C14.6397 11.329 14.4489 11.25 14.25 11.25ZM4.719 10.719C4.64927 10.7887 4.59395 10.8715 4.55622 10.9626C4.51848 11.0537 4.49905 11.1514 4.49905 11.25C4.49905 11.3486 4.51848 11.4463 4.55622 11.5374C4.59395 11.6285 4.64927 11.7113 4.719 11.781C4.85983 11.9218 5.05084 12.0009 5.25 12.0009C5.34862 12.0009 5.44627 11.9815 5.53737 11.9438C5.62848 11.906 5.71127 11.8507 5.781 11.781L8.781 8.781C8.85085 8.71133 8.90626 8.62857 8.94407 8.53745C8.98188 8.44633 9.00134 8.34865 9.00134 8.25C9.00134 8.15135 8.98188 8.05367 8.94407 7.96255C8.90626 7.87143 8.85085 7.78867 8.781 7.719L5.781 4.719C5.71127 4.64927 5.62848 4.59395 5.53737 4.55621C5.44627 4.51848 5.34862 4.49905 5.25 4.49905C5.15138 4.49905 5.05373 4.51848 4.96263 4.55621C4.87152 4.59395 4.78873 4.64927 4.719 4.719C4.64927 4.78873 4.59395 4.87152 4.55622 4.96262C4.51848 5.05373 4.49905 5.15138 4.49905 5.25C4.49905 5.34862 4.51848 5.44627 4.55622 5.53738C4.59395 5.62848 4.64927 5.71127 4.719 5.781L7.1895 8.25L4.719 10.719Z" fill="#00C6D2"/>
</svg>
