<svg width="514" height="625" viewBox="0 0 514 625" fill="none" xmlns="http://www.w3.org/2000/svg">
<path fill-rule="evenodd" clip-rule="evenodd" d="M243.294 6.56485C311.21 -12.4389 390.684 11.3064 443.032 58.5656C493.707 104.315 499.089 179.5 509.574 246.961C518.487 304.307 508.614 359.279 498.657 416.454C486.762 484.758 504.788 575.74 445.935 612.393C386.194 649.6 311.372 593.35 243.294 575.495C194.576 562.718 146.964 551.73 105.518 523.113C63.1533 493.861 19.4569 460.32 4.94695 410.925C-9.39877 362.088 10.1331 311.095 29.3986 263.982C47.3788 220.012 80.6879 187.996 111.047 151.459C153.887 99.9037 178.742 24.6273 243.294 6.56485Z" fill="#00C6D2"/>
</svg>
