<svg width="51" height="52" viewBox="0 0 51 52" fill="none" xmlns="http://www.w3.org/2000/svg">
<path d="M16.9245 14.826C14.0391 5.531 20.6415 1.62173 24.3034 0.828966C26.2904 0.799214 28.0185 1.57835 30.1139 2.7545C32.2093 3.93065 33.9796 7.52672 34.0354 11.2491C34.0799 14.227 32.2587 17.2798 31.3424 18.4339C31.853 18.7483 31.8597 19.7789 32.0906 20.1334C32.545 20.831 31.6731 22.4205 31.1423 23.1664C31.7131 22.6748 32.0384 22.6834 32.1298 22.7491C32.2936 24.0347 34.1549 25.268 35.0652 25.724C39.8009 28.2694 45.8582 22.5435 47.097 20.8143C48.0881 19.431 48.3007 16.7377 48.2832 15.564C48.5962 12.3392 47.0488 11.5574 46.2359 11.5695C43.2644 12.2178 45.7588 15.9036 45.9349 15.5991C46.0758 15.3555 46.3509 15.2239 46.4708 15.1886C47.0548 15.5824 46.2465 16.2988 45.7693 16.6079C43.4523 16.3206 43.2614 14.0291 43.4556 12.9193C42.898 9.4661 45.566 9.06389 47.0141 9.24346C48.4622 9.42303 52.343 15.2013 48.7333 21.4942C45.8456 26.5286 40.3257 29.1336 37.9268 29.8068C39.1828 31.6396 42.6861 31.9158 44.2807 31.8248C47.4223 30.4697 47.5683 28.153 47.195 27.3536C46.8963 26.7141 46.649 27.0935 46.5627 27.3631C46.6422 27.8449 46.5447 28.1684 46.486 28.2699C45.9115 28.52 45.8061 27.1061 45.8251 26.3679C47.2353 24.0122 48.6546 26.292 49.188 27.7263C49.876 31.4392 47.4645 33.2866 44.3244 34.7424C41.8124 35.907 36.568 33.5839 34.2599 32.2768C35.1134 34.9809 38.946 37.5398 41.0595 39.9232C43.1729 42.3066 44.5744 45.4051 43.0842 48.4462C41.594 51.4874 38.4192 50.6292 37.0539 49.9453C35.6886 49.2614 35.1798 45.4451 35.4387 44.6363C35.6458 43.9891 35.826 44.3621 35.8903 44.6295C36.2139 48.1466 39.0259 48.9095 40.62 46.7725C42.2141 44.6354 38.2731 40.8706 37.817 40.5756C37.3609 40.2805 35.3618 39.5054 33.9002 38.4204C32.7308 37.5524 30.3963 33.6763 29.3751 31.8468C29.168 32.4939 29.3772 33.9935 29.5076 34.6624C29.9999 35.3594 30.8423 36.9165 30.2739 37.5691C29.7055 38.2216 30.0491 38.6458 30.2919 38.7763C30.6848 38.8711 31.7121 39.4997 32.6779 41.2563C33.6437 43.0128 32.0397 44.8884 31.1169 45.6066C30.1907 46.0901 28.6404 46.7305 29.8495 45.4243C31.3608 43.7917 29.8916 42.2036 28.4389 41.7222C26.9863 41.2409 26.1478 39.5428 26.4956 38.6319C26.7737 37.9032 26.8965 37.2507 26.923 37.0155C26.0331 35.4993 26.2802 34.3082 26.5151 33.9021C27.057 33.894 27.4694 31.2716 27.1127 31.5788C26.8273 31.8246 26.6927 31.6857 26.6611 31.5855C26.8312 30.8786 25.6344 29.3871 25.5426 29.2879C25.4508 29.1886 25.4493 29.088 25.4447 28.7862C25.4411 28.5447 25.6771 28.2125 25.7955 28.0766C25.3333 27.3791 24.9811 27.9881 24.8923 28.0901C24.8035 28.192 25.6314 29.1859 25.1813 29.2933C24.8212 29.3792 24.385 30.4121 24.2119 30.9178C24.3218 32.2243 23.5842 31.2291 23.5902 31.6315C23.5963 32.0339 23.7062 33.3404 24.3474 33.9346C24.8604 34.4099 24.2913 36.2163 23.9425 37.0601C23.9455 37.2613 24.063 37.8633 24.5085 38.6617C25.0655 39.6596 24.3641 41.0789 22.4794 41.9121C20.5948 42.7453 20.7905 43.7487 20.6174 44.2544C20.4443 44.7601 22.1829 46.2435 21.7328 46.3509C21.3728 46.4368 20.6736 45.9978 20.369 45.7675C16.4567 43.9142 18.8365 39.9541 19.7337 39.5382C20.4514 39.2054 20.9249 38.6482 21.0719 38.4112C20.6745 38.0147 20.0742 36.9369 20.8521 35.7982C21.63 34.6596 21.4994 32.7697 21.3368 31.9671C21.3458 32.5708 19.7517 34.7078 19.4883 35.2149C19.2249 35.722 16.7622 40.1864 14.5058 40.3208C12.7006 40.4284 10.7932 43.7642 10.0652 45.4187C10.5695 48.9331 12.0025 48.1066 12.999 48.2929C13.9956 48.4793 15.3157 46.1451 15.129 45.7454C14.9424 45.3457 15.2886 44.3342 15.5625 44.5314C15.8365 44.7285 15.838 44.8291 15.6108 47.7507C15.3835 50.6723 11.4336 52.3415 8.50119 49.5678C6.15529 47.3489 7.92409 43.2034 9.10172 41.408C9.3811 40.7598 12.7756 37.395 14.438 35.7936C14.8679 35.5457 15.9699 33.5234 16.4671 32.5432C14.9799 34.578 10.3962 35.351 8.29029 35.4832C6.56341 35.9921 4.30021 34.4696 3.38447 33.6447C1.92882 32.9621 1.45012 31.158 1.33118 29.2479C1.21224 27.3378 2.9072 25.9036 3.99404 26.0886C5.08087 26.2736 4.85059 28.9939 4.48781 28.8987C4.19758 28.8226 4.12101 28.5353 4.119 28.4011C3.95521 27.1156 3.62726 27.7376 3.48376 28.2094C3.36639 32.4375 6.06992 31.9945 7.61287 32.4745C8.84723 32.8585 11.5984 31.1738 12.8197 30.2834C11.878 30.1365 10.3671 29.3809 9.7293 29.0215C5.73871 27.9744 4.15509 24.778 2.14096 22.9969C0.126836 21.2158 0.317958 15.8797 0.218601 15.2774C0.119244 14.6751 0.802627 12.0486 1.32947 11.0344C1.85632 10.0203 3.74699 9.58944 5.56391 10.2666C7.38082 10.9438 6.62068 14.4771 6.72455 15.3812C6.82843 16.2853 5.30958 17.4149 4.21823 16.9282C3.12687 16.4414 3.92769 15.6244 4.02102 15.8242C4.09569 15.9841 4.3552 16.0205 4.47563 16.0187C6.17962 13.9806 5.08725 12.6217 4.32806 12.197C1.71966 11.7531 1.73596 16.0597 2.07016 18.2685C4.98001 25.5707 9.41767 26.3092 12.8558 26.6603C15.6063 26.9411 17.8183 24.238 18.5805 22.8514C18.9452 23.0807 19.6562 23.4994 19.5815 23.3395C19.4882 23.1396 19.1194 22.642 18.5639 21.7447C18.1195 21.0268 18.5874 19.2958 18.877 18.52C18.2917 18.0457 17.3315 15.8597 16.9245 14.826Z" fill="#050533"/>
<path d="M21.5052 19.0844C21.4956 19.0839 21.4859 19.0836 21.476 19.0833M21.476 19.0833C20.9256 19.0688 19.9025 19.3525 19.9924 20.6164C20.1068 22.2247 21.7401 22.7034 23.4592 22.8789C23.6453 23.2451 24.0721 23.9968 24.2901 24.074C24.0693 23.4065 23.7873 21.8677 24.4256 21.0532C23.7337 20.3917 22.1751 19.0716 21.476 19.0833ZM29.1823 18.9679C30.4142 19.1898 30.5537 20.0548 30.4694 20.4595C29.7758 22.402 27.9154 22.8457 27.0719 22.8248C26.9346 23.3099 26.4849 23.8399 26.2771 24.0443C26.6902 22.6695 26.2987 21.4612 26.0513 21.0288M29.1823 18.9679C28.6414 19.0436 27.2579 19.5617 26.0513 21.0288M29.1823 18.9679C27.9625 19.146 26.5867 20.416 26.0513 21.0288M24.3034 0.828966C20.6415 1.62173 14.0391 5.531 16.9245 14.826C17.3315 15.8597 18.2917 18.0457 18.877 18.52C18.5874 19.2958 18.1195 21.0268 18.5639 21.7447C19.1194 22.642 19.4882 23.1396 19.5815 23.3395C19.6562 23.4994 18.9452 23.0807 18.5805 22.8514C17.8183 24.238 15.6063 26.9411 12.8558 26.6603C9.41767 26.3092 4.98001 25.5707 2.07016 18.2685C1.73596 16.0597 1.71966 11.7531 4.32806 12.197C5.08725 12.6217 6.17962 13.9806 4.47563 16.0187C4.3552 16.0205 4.09569 15.9841 4.02102 15.8242C3.92769 15.6244 3.12687 16.4414 4.21823 16.9282C5.30958 17.4149 6.82843 16.2853 6.72455 15.3812C6.62068 14.4771 7.38082 10.9438 5.56391 10.2666C3.74699 9.58944 1.85632 10.0203 1.32947 11.0344C0.802627 12.0486 0.119244 14.6751 0.218601 15.2774C0.317958 15.8797 0.126836 21.2158 2.14096 22.9969C4.15509 24.778 5.73871 27.9744 9.7293 29.0215C10.3671 29.3809 11.878 30.1365 12.8197 30.2834C11.5984 31.1738 8.84723 32.8585 7.61287 32.4745C6.06992 31.9945 3.36639 32.4375 3.48376 28.2094C3.62726 27.7376 3.95521 27.1156 4.119 28.4011C4.12101 28.5353 4.19758 28.8226 4.48781 28.8987C4.85059 28.9939 5.08087 26.2736 3.99404 26.0886C2.9072 25.9036 1.21224 27.3378 1.33118 29.2479C1.45012 31.158 1.92882 32.9621 3.38447 33.6447C4.30021 34.4696 6.56341 35.9921 8.29029 35.4832C10.3962 35.351 14.9799 34.578 16.4671 32.5432C15.9699 33.5234 14.8679 35.5457 14.438 35.7936C12.7756 37.395 9.3811 40.7598 9.10172 41.408C7.92409 43.2034 6.15529 47.3489 8.50119 49.5678C11.4336 52.3415 15.3835 50.6723 15.6108 47.7507C15.838 44.8291 15.8365 44.7285 15.5625 44.5314C15.2886 44.3342 14.9424 45.3457 15.129 45.7454C15.3157 46.1451 13.9956 48.4793 12.999 48.2929C12.0025 48.1066 10.5695 48.9331 10.0652 45.4187C10.7932 43.7642 12.7006 40.4284 14.5058 40.3208C16.7622 40.1864 19.2249 35.722 19.4883 35.2149C19.7517 34.7078 21.3458 32.5708 21.3368 31.9671C21.4994 32.7697 21.63 34.6596 20.8521 35.7982C20.0742 36.9369 20.6745 38.0147 21.0719 38.4112C20.9249 38.6482 20.4514 39.2054 19.7337 39.5382C18.8365 39.9541 16.4567 43.9142 20.369 45.7675C20.6736 45.9978 21.3728 46.4368 21.7328 46.3509C22.1829 46.2435 20.4443 44.7601 20.6174 44.2544C20.7905 43.7487 20.5948 42.7453 22.4794 41.9121C24.3641 41.0789 25.0655 39.6596 24.5085 38.6617C24.063 37.8633 23.9455 37.2613 23.9425 37.0601C24.2913 36.2163 24.8604 34.4099 24.3474 33.9346C23.7062 33.3404 23.5963 32.0339 23.5902 31.6315C23.5842 31.2291 24.3218 32.2243 24.2119 30.9178C24.385 30.4121 24.8212 29.3792 25.1813 29.2933C25.6314 29.1859 24.8035 28.192 24.8923 28.0901C24.9811 27.9881 25.3333 27.3791 25.7955 28.0766C25.6771 28.2125 25.4411 28.5447 25.4447 28.7862C25.4493 29.088 25.4508 29.1886 25.5426 29.2879C25.6344 29.3871 26.8312 30.8786 26.6611 31.5855C26.6927 31.6857 26.8273 31.8246 27.1127 31.5788C27.4694 31.2716 27.057 33.894 26.5151 33.9021C26.2802 34.3082 26.0331 35.4993 26.923 37.0155C26.8965 37.2507 26.7737 37.9032 26.4956 38.6319C26.1478 39.5428 26.9863 41.2409 28.4389 41.7222C29.8916 42.2036 31.3608 43.7917 29.8495 45.4243C28.6404 46.7305 30.1907 46.0901 31.1169 45.6066C32.0397 44.8884 33.6437 43.0128 32.6779 41.2563C31.7121 39.4997 30.6848 38.8711 30.292 38.7763C30.0491 38.6458 29.7055 38.2216 30.2739 37.5691C30.8423 36.9165 29.9999 35.3594 29.5076 34.6624C29.3772 33.9935 29.168 32.4939 29.3751 31.8468C30.3963 33.6763 32.7308 37.5524 33.9002 38.4204C35.3618 39.5054 37.3609 40.2805 37.817 40.5756C38.2731 40.8706 42.2141 44.6354 40.62 46.7725C39.0259 48.9095 36.2139 48.1466 35.8903 44.6295C35.826 44.3621 35.6458 43.9891 35.4387 44.6363C35.1798 45.4451 35.6886 49.2614 37.0539 49.9453C38.4193 50.6292 41.594 51.4874 43.0842 48.4462C44.5744 45.4051 43.1729 42.3066 41.0594 39.9232C38.946 37.5398 35.1134 34.9809 34.2599 32.2768C36.568 33.5839 41.8124 35.907 44.3244 34.7424C47.4645 33.2866 49.876 31.4392 49.188 27.7263C48.6546 26.292 47.2353 24.0122 45.8251 26.3679C45.8061 27.1061 45.9115 28.52 46.486 28.2699C46.5447 28.1684 46.6422 27.8449 46.5627 27.3631C46.649 27.0935 46.8963 26.7141 47.195 27.3536C47.5683 28.153 47.4223 30.4697 44.2807 31.8248C42.6861 31.9158 39.1828 31.6396 37.9268 29.8068C40.3257 29.1336 45.8456 26.5286 48.7333 21.4942C52.343 15.2013 48.4622 9.42303 47.0141 9.24346C45.566 9.06389 42.898 9.4661 43.4556 12.9193C43.2614 14.0291 43.4523 16.3206 45.7693 16.6079C46.2465 16.2988 47.0548 15.5824 46.4708 15.1886C46.3509 15.2239 46.0758 15.3555 45.9349 15.5991C45.7588 15.9036 43.2644 12.2178 46.2359 11.5695C47.0488 11.5574 48.5962 12.3392 48.2832 15.564C48.3007 16.7377 48.0881 19.431 47.097 20.8143C45.8582 22.5435 39.8009 28.2694 35.0651 25.724C34.1549 25.268 32.2936 24.0347 32.1298 22.7491C32.0384 22.6834 31.7131 22.6748 31.1423 23.1664C31.6731 22.4205 32.545 20.831 32.0906 20.1334C31.8597 19.7789 31.853 18.7483 31.3424 18.4339C32.2587 17.2798 34.08 14.227 34.0354 11.2491C33.9796 7.52672 32.2093 3.93065 30.1139 2.7545C28.0185 1.57835 26.2904 0.799214 24.3034 0.828966Z" stroke="#00C6D2" stroke-width="0.3"/>
<path d="M16.9245 14.826C14.0391 5.531 20.6415 1.62173 24.3034 0.828966C26.2904 0.799214 28.0185 1.57835 30.1139 2.7545C32.2093 3.93065 33.9796 7.52672 34.0354 11.2491C34.0799 14.227 32.2587 17.2798 31.3424 18.4339C31.853 18.7483 31.8597 19.7789 32.0906 20.1334C32.545 20.831 31.6731 22.4205 31.1423 23.1664C31.7131 22.6748 32.0384 22.6834 32.1298 22.7491C32.2936 24.0347 34.1549 25.268 35.0652 25.724C39.8009 28.2694 45.8582 22.5435 47.097 20.8143C48.0881 19.431 48.3007 16.7377 48.2832 15.564C48.5962 12.3392 47.0488 11.5574 46.2359 11.5695C43.2644 12.2178 45.7588 15.9036 45.9349 15.5991C46.0758 15.3555 46.3509 15.2239 46.4708 15.1886C47.0548 15.5824 46.2465 16.2988 45.7693 16.6079C43.4523 16.3206 43.2614 14.0291 43.4556 12.9193C42.898 9.4661 45.566 9.06389 47.0141 9.24346C48.4622 9.42303 52.343 15.2013 48.7333 21.4942C45.8456 26.5286 40.3257 29.1336 37.9268 29.8068C39.1828 31.6396 42.6861 31.9158 44.2807 31.8248C47.4223 30.4697 47.5683 28.153 47.195 27.3536C46.8963 26.7141 46.649 27.0935 46.5627 27.3631C46.6422 27.8449 46.5447 28.1684 46.486 28.2699C45.9115 28.52 45.8061 27.1061 45.8251 26.3679C47.2353 24.0122 48.6546 26.292 49.188 27.7263C49.876 31.4392 47.4645 33.2866 44.3244 34.7424C41.8124 35.907 36.568 33.5839 34.2599 32.2768C35.1134 34.9809 38.946 37.5398 41.0595 39.9232C43.1729 42.3066 44.5744 45.4051 43.0842 48.4462C41.594 51.4874 38.4192 50.6292 37.0539 49.9453C35.6886 49.2614 35.1798 45.4451 35.4387 44.6363C35.6458 43.9891 35.826 44.3621 35.8903 44.6295C36.2139 48.1466 39.0259 48.9095 40.62 46.7725C42.2141 44.6354 38.2731 40.8706 37.817 40.5756C37.3609 40.2805 35.3618 39.5054 33.9002 38.4204C32.7308 37.5524 30.3963 33.6763 29.3751 31.8468C29.168 32.4939 29.3772 33.9935 29.5076 34.6624C29.9999 35.3594 30.8423 36.9165 30.2739 37.5691C29.7055 38.2216 30.0491 38.6458 30.2919 38.7763C30.6848 38.8711 31.7121 39.4997 32.6779 41.2563C33.6437 43.0128 32.0397 44.8884 31.1169 45.6066C30.1907 46.0901 28.6404 46.7305 29.8495 45.4243C31.3608 43.7917 29.8916 42.2036 28.4389 41.7222C26.9863 41.2409 26.1478 39.5428 26.4956 38.6319C26.7737 37.9032 26.8965 37.2507 26.923 37.0155C26.0331 35.4993 26.2802 34.3082 26.5151 33.9021C27.057 33.894 27.4694 31.2716 27.1127 31.5788C26.8273 31.8246 26.6927 31.6857 26.6611 31.5855C26.8312 30.8786 25.6344 29.3871 25.5426 29.2879C25.4508 29.1886 25.4493 29.088 25.4447 28.7862C25.4411 28.5447 25.6771 28.2125 25.7955 28.0766C25.3333 27.3791 24.9811 27.9881 24.8923 28.0901C24.8035 28.192 25.6314 29.1859 25.1813 29.2933C24.8212 29.3792 24.385 30.4121 24.2119 30.9178C24.3218 32.2243 23.5842 31.2291 23.5902 31.6315C23.5963 32.0339 23.7062 33.3404 24.3474 33.9346C24.8604 34.4099 24.2913 36.2163 23.9425 37.0601C23.9455 37.2613 24.063 37.8633 24.5085 38.6617C25.0655 39.6596 24.3641 41.0789 22.4794 41.9121C20.5948 42.7453 20.7905 43.7487 20.6174 44.2544C20.4443 44.7601 22.1829 46.2435 21.7328 46.3509C21.3728 46.4368 20.6736 45.9978 20.369 45.7675C16.4567 43.9142 18.8365 39.9541 19.7337 39.5382C20.4514 39.2054 20.9249 38.6482 21.0719 38.4112C20.6745 38.0147 20.0742 36.9369 20.8521 35.7982C21.63 34.6596 21.4994 32.7697 21.3368 31.9671C21.3458 32.5708 19.7517 34.7078 19.4883 35.2149C19.2249 35.722 16.7622 40.1864 14.5058 40.3208C12.7006 40.4284 10.7932 43.7642 10.0652 45.4187C10.5695 48.9331 12.0025 48.1066 12.999 48.2929C13.9956 48.4793 15.3157 46.1451 15.129 45.7454C14.9424 45.3457 15.2886 44.3342 15.5625 44.5314C15.8365 44.7285 15.838 44.8291 15.6108 47.7507C15.3835 50.6723 11.4336 52.3415 8.50119 49.5678C6.15529 47.3489 7.92409 43.2034 9.10172 41.408C9.3811 40.7598 12.7756 37.395 14.438 35.7936C14.8679 35.5457 15.9699 33.5234 16.4671 32.5432C14.9799 34.578 10.3962 35.351 8.29029 35.4832C6.56341 35.9921 4.30021 34.4696 3.38447 33.6447C1.92882 32.9621 1.45012 31.158 1.33118 29.2479C1.21224 27.3378 2.9072 25.9036 3.99404 26.0886C5.08087 26.2736 4.85059 28.9939 4.48781 28.8987C4.19758 28.8226 4.12101 28.5353 4.119 28.4011C3.95521 27.1156 3.62726 27.7376 3.48376 28.2094C3.36639 32.4375 6.06992 31.9945 7.61287 32.4745C8.84723 32.8585 11.5984 31.1738 12.8197 30.2834C11.878 30.1365 10.3671 29.3809 9.7293 29.0215C5.73871 27.9744 4.15509 24.778 2.14096 22.9969C0.126836 21.2158 0.317958 15.8797 0.218601 15.2774C0.119244 14.6751 0.802627 12.0486 1.32947 11.0344C1.85632 10.0203 3.74699 9.58944 5.56391 10.2666C7.38082 10.9438 6.62068 14.4771 6.72455 15.3812C6.82843 16.2853 5.30958 17.4149 4.21823 16.9282C3.12687 16.4414 3.92769 15.6244 4.02102 15.8242C4.09569 15.9841 4.3552 16.0205 4.47563 16.0187C6.17962 13.9806 5.08725 12.6217 4.32806 12.197C1.71966 11.7531 1.73596 16.0597 2.07016 18.2685C4.98001 25.5707 9.41767 26.3092 12.8558 26.6603C15.6063 26.9411 17.8183 24.238 18.5805 22.8514C18.9452 23.0807 19.6562 23.4994 19.5815 23.3395C19.4882 23.1396 19.1194 22.642 18.5639 21.7447C18.1195 21.0268 18.5874 19.2958 18.877 18.52C18.2917 18.0457 17.3315 15.8597 16.9245 14.826Z" fill="#050533"/>
<path d="M21.5052 19.0844C21.4956 19.0839 21.4859 19.0836 21.476 19.0833M21.476 19.0833C20.9256 19.0688 19.9025 19.3525 19.9924 20.6164C20.1068 22.2247 21.7401 22.7034 23.4592 22.8789C23.6453 23.2451 24.0721 23.9968 24.2901 24.074C24.0693 23.4065 23.7873 21.8677 24.4256 21.0532C23.7337 20.3917 22.1751 19.0716 21.476 19.0833ZM29.1823 18.9679C30.4142 19.1898 30.5537 20.0548 30.4694 20.4595C29.7758 22.402 27.9154 22.8457 27.0719 22.8248C26.9346 23.3099 26.4849 23.8399 26.2771 24.0443C26.6902 22.6695 26.2987 21.4612 26.0513 21.0288M29.1823 18.9679C28.6414 19.0436 27.2579 19.5617 26.0513 21.0288M29.1823 18.9679C27.9625 19.146 26.5867 20.416 26.0513 21.0288M24.3034 0.828966C20.6415 1.62173 14.0391 5.531 16.9245 14.826C17.3315 15.8597 18.2917 18.0457 18.877 18.52C18.5874 19.2958 18.1195 21.0268 18.5639 21.7447C19.1194 22.642 19.4882 23.1396 19.5815 23.3395C19.6562 23.4994 18.9452 23.0807 18.5805 22.8514C17.8183 24.238 15.6063 26.9411 12.8558 26.6603C9.41767 26.3092 4.98001 25.5707 2.07016 18.2685C1.73596 16.0597 1.71966 11.7531 4.32806 12.197C5.08725 12.6217 6.17962 13.9806 4.47563 16.0187C4.3552 16.0205 4.09569 15.9841 4.02102 15.8242C3.92769 15.6244 3.12687 16.4414 4.21823 16.9282C5.30958 17.4149 6.82843 16.2853 6.72455 15.3812C6.62068 14.4771 7.38082 10.9438 5.56391 10.2666C3.74699 9.58944 1.85632 10.0203 1.32947 11.0344C0.802627 12.0486 0.119244 14.6751 0.218601 15.2774C0.317958 15.8797 0.126836 21.2158 2.14096 22.9969C4.15509 24.778 5.73871 27.9744 9.7293 29.0215C10.3671 29.3809 11.878 30.1365 12.8197 30.2834C11.5984 31.1738 8.84723 32.8585 7.61287 32.4745C6.06992 31.9945 3.36639 32.4375 3.48376 28.2094C3.62726 27.7376 3.95521 27.1156 4.119 28.4011C4.12101 28.5353 4.19758 28.8226 4.48781 28.8987C4.85059 28.9939 5.08087 26.2736 3.99404 26.0886C2.9072 25.9036 1.21224 27.3378 1.33118 29.2479C1.45012 31.158 1.92882 32.9621 3.38447 33.6447C4.30021 34.4696 6.56341 35.9921 8.29029 35.4832C10.3962 35.351 14.9799 34.578 16.4671 32.5432C15.9699 33.5234 14.8679 35.5457 14.438 35.7936C12.7756 37.395 9.3811 40.7598 9.10172 41.408C7.92409 43.2034 6.15529 47.3489 8.50119 49.5678C11.4336 52.3415 15.3835 50.6723 15.6108 47.7507C15.838 44.8291 15.8365 44.7285 15.5625 44.5314C15.2886 44.3342 14.9424 45.3457 15.129 45.7454C15.3157 46.1451 13.9956 48.4793 12.999 48.2929C12.0025 48.1066 10.5695 48.9331 10.0652 45.4187C10.7932 43.7642 12.7006 40.4284 14.5058 40.3208C16.7622 40.1864 19.2249 35.722 19.4883 35.2149C19.7517 34.7078 21.3458 32.5708 21.3368 31.9671C21.4994 32.7697 21.63 34.6596 20.8521 35.7982C20.0742 36.9369 20.6745 38.0147 21.0719 38.4112C20.9249 38.6482 20.4514 39.2054 19.7337 39.5382C18.8365 39.9541 16.4567 43.9142 20.369 45.7675C20.6736 45.9978 21.3728 46.4368 21.7328 46.3509C22.1829 46.2435 20.4443 44.7601 20.6174 44.2544C20.7905 43.7487 20.5948 42.7453 22.4794 41.9121C24.3641 41.0789 25.0655 39.6596 24.5085 38.6617C24.063 37.8633 23.9455 37.2613 23.9425 37.0601C24.2913 36.2163 24.8604 34.4099 24.3474 33.9346C23.7062 33.3404 23.5963 32.0339 23.5902 31.6315C23.5842 31.2291 24.3218 32.2243 24.2119 30.9178C24.385 30.4121 24.8212 29.3792 25.1813 29.2933C25.6314 29.1859 24.8035 28.192 24.8923 28.0901C24.9811 27.9881 25.3333 27.3791 25.7955 28.0766C25.6771 28.2125 25.4411 28.5447 25.4447 28.7862C25.4493 29.088 25.4508 29.1886 25.5426 29.2879C25.6344 29.3871 26.8312 30.8786 26.6611 31.5855C26.6927 31.6857 26.8273 31.8246 27.1127 31.5788C27.4694 31.2716 27.057 33.894 26.5151 33.9021C26.2802 34.3082 26.0331 35.4993 26.923 37.0155C26.8965 37.2507 26.7737 37.9032 26.4956 38.6319C26.1478 39.5428 26.9863 41.2409 28.4389 41.7222C29.8916 42.2036 31.3608 43.7917 29.8495 45.4243C28.6404 46.7305 30.1907 46.0901 31.1169 45.6066C32.0397 44.8884 33.6437 43.0128 32.6779 41.2563C31.7121 39.4997 30.6848 38.8711 30.292 38.7763C30.0491 38.6458 29.7055 38.2216 30.2739 37.5691C30.8423 36.9165 29.9999 35.3594 29.5076 34.6624C29.3772 33.9935 29.168 32.4939 29.3751 31.8468C30.3963 33.6763 32.7308 37.5524 33.9002 38.4204C35.3618 39.5054 37.3609 40.2805 37.817 40.5756C38.2731 40.8706 42.2141 44.6354 40.62 46.7725C39.0259 48.9095 36.2139 48.1466 35.8903 44.6295C35.826 44.3621 35.6458 43.9891 35.4387 44.6363C35.1798 45.4451 35.6886 49.2614 37.0539 49.9453C38.4193 50.6292 41.594 51.4874 43.0842 48.4462C44.5744 45.4051 43.1729 42.3066 41.0594 39.9232C38.946 37.5398 35.1134 34.9809 34.2599 32.2768C36.568 33.5839 41.8124 35.907 44.3244 34.7424C47.4645 33.2866 49.876 31.4392 49.188 27.7263C48.6546 26.292 47.2353 24.0122 45.8251 26.3679C45.8061 27.1061 45.9115 28.52 46.486 28.2699C46.5447 28.1684 46.6422 27.8449 46.5627 27.3631C46.649 27.0935 46.8963 26.7141 47.195 27.3536C47.5683 28.153 47.4223 30.4697 44.2807 31.8248C42.6861 31.9158 39.1828 31.6396 37.9268 29.8068C40.3257 29.1336 45.8456 26.5286 48.7333 21.4942C52.343 15.2013 48.4622 9.42303 47.0141 9.24346C45.566 9.06389 42.898 9.4661 43.4556 12.9193C43.2614 14.0291 43.4523 16.3206 45.7693 16.6079C46.2465 16.2988 47.0548 15.5824 46.4708 15.1886C46.3509 15.2239 46.0758 15.3555 45.9349 15.5991C45.7588 15.9036 43.2644 12.2178 46.2359 11.5695C47.0488 11.5574 48.5962 12.3392 48.2832 15.564C48.3007 16.7377 48.0881 19.431 47.097 20.8143C45.8582 22.5435 39.8009 28.2694 35.0651 25.724C34.1549 25.268 32.2936 24.0347 32.1298 22.7491C32.0384 22.6834 31.7131 22.6748 31.1423 23.1664C31.6731 22.4205 32.545 20.831 32.0906 20.1334C31.8597 19.7789 31.853 18.7483 31.3424 18.4339C32.2587 17.2798 34.08 14.227 34.0354 11.2491C33.9796 7.52672 32.2093 3.93065 30.1139 2.7545C28.0185 1.57835 26.2904 0.799214 24.3034 0.828966Z" stroke="#00C6D2" stroke-width="0.3"/>
</svg>
