<svg width="375" height="135" viewBox="0 0 375 135" fill="none" xmlns="http://www.w3.org/2000/svg">
<path d="M178.056 38.3494C168.078 13.8777 191.236 3.48438 204.062 1.34669C211.016 1.24256 217.054 3.27466 224.373 6.34885C231.691 9.42304 237.84 18.8823 237.987 28.6967C238.105 36.5482 231.691 44.6213 228.47 47.6765C230.253 48.4988 230.262 51.2162 231.066 52.1479C232.647 53.9815 229.576 58.184 227.708 60.1576C229.712 58.8541 230.851 58.8724 231.169 59.0446C231.726 62.4322 238.224 65.6602 241.404 66.8507C257.945 73.5012 279.219 58.3251 283.577 53.7495C287.063 50.089 287.842 42.9846 287.796 39.89C288.933 31.3829 283.528 29.3414 280.683 29.384C270.275 31.1317 278.957 40.8183 279.577 40.0131C280.073 39.3689 281.038 39.0184 281.458 38.9236C283.497 39.9544 280.659 41.8541 278.985 42.6751C270.879 41.9474 270.241 35.9078 270.935 32.979C269.028 23.8807 278.371 22.7857 283.436 23.2405C288.502 23.6953 302.009 38.8812 289.295 55.5211C279.123 68.8329 259.771 75.7733 251.367 77.5794C255.739 82.3957 267.996 83.0789 273.578 82.8184C284.59 79.2045 285.131 73.0941 283.835 70.991C282.798 69.3086 281.928 70.3121 281.622 71.0242C281.894 72.2936 281.549 73.1478 281.342 73.4162C279.328 74.0831 278.977 70.3563 279.054 68.4095C284.019 62.1799 288.957 68.1728 290.806 71.9479C293.165 81.7292 284.702 86.6316 273.693 90.5108C264.886 93.6142 246.562 87.5564 238.501 84.1396C241.453 91.2589 254.834 97.9567 262.2 104.214C269.566 110.471 274.43 118.623 269.176 126.661C263.921 134.699 252.821 132.478 248.051 130.692C243.282 128.906 241.55 118.85 242.467 116.714C243.2 115.005 243.826 115.986 244.048 116.69C245.135 125.96 254.966 127.935 260.573 122.28C266.18 116.624 252.436 106.748 250.843 105.976C249.251 105.204 242.264 103.186 237.163 100.344C233.082 98.0701 224.961 87.8799 221.411 83.0689C220.678 84.7779 221.39 88.7293 221.838 90.4913C223.552 92.3228 226.48 96.4179 224.483 98.1458C222.485 99.8737 223.682 100.988 224.53 101.329C225.904 101.574 229.491 103.218 232.848 107.837C236.206 112.456 230.568 117.423 227.329 119.328C224.081 120.615 218.647 122.324 222.896 118.864C228.206 114.54 223.085 110.371 218.007 109.121C212.929 107.87 210.017 103.403 211.245 100.997C212.228 99.0722 212.666 97.3499 212.762 96.7294C209.667 92.743 210.548 89.5991 211.375 88.5255C213.272 88.4971 214.749 81.5768 213.496 82.3915C212.494 83.0432 212.025 82.6788 211.916 82.4152C212.52 80.5489 208.351 76.6316 208.031 76.3711C207.711 76.1106 207.707 75.8453 207.695 75.0496C207.685 74.413 208.515 73.5338 208.932 73.1739C207.323 71.3407 206.083 72.9512 205.771 73.2212C205.458 73.4912 208.343 76.1011 206.767 76.39C205.505 76.6212 203.965 79.3504 203.353 80.6862C203.721 84.1297 201.152 81.5151 201.168 82.5761C201.184 83.6371 201.551 87.0807 203.788 88.6391C205.577 89.8858 203.562 94.6562 202.331 96.8856C202.339 97.4161 202.742 99.002 204.291 101.101C206.227 103.725 203.754 107.477 197.147 109.698C190.541 111.92 191.213 114.563 190.6 115.899C189.988 117.234 196.054 121.123 194.477 121.412C193.216 121.643 190.774 120.495 189.711 119.892C176.043 115.055 184.423 104.583 187.569 103.474C190.085 102.588 191.749 101.112 192.267 100.485C190.881 99.4449 188.794 96.6108 191.531 93.5983C194.268 90.5858 193.835 85.6043 193.277 83.4902C193.301 85.0817 187.694 90.7373 186.766 92.0777C185.837 93.4182 177.161 105.222 169.262 105.606C162.943 105.912 156.224 114.733 153.655 119.105C155.374 128.365 160.4 126.167 163.885 126.646C167.371 127.124 172.021 120.952 171.373 119.901C170.725 118.849 171.949 116.178 172.906 116.694C173.862 117.21 173.866 117.476 173.033 125.182C172.2 132.889 158.354 137.341 148.127 130.066C139.946 124.245 146.19 113.291 150.334 108.542C151.321 106.829 163.244 97.9131 169.083 93.6691C170.591 93.0097 174.474 87.663 176.226 85.0721C170.995 90.4567 154.943 92.5542 147.571 92.9299C141.521 94.294 133.62 90.3088 130.426 88.1457C125.34 86.3646 123.688 81.6137 123.296 76.5786C122.905 71.5435 128.855 67.74 132.657 68.2137C136.458 68.6874 135.617 75.8635 134.348 75.6172C133.334 75.4201 133.069 74.6635 133.064 74.3098C132.507 70.9222 131.352 72.5667 130.843 73.8125C130.378 84.9626 139.845 83.7596 145.239 85.0054C149.554 86.0021 159.205 81.5241 163.491 79.1605C160.197 78.7854 154.918 76.8126 152.691 75.8732C138.738 73.1636 133.237 64.756 126.211 60.0855C119.185 55.4151 119.923 41.3424 119.583 39.7556C119.243 38.1688 121.669 31.2343 123.526 28.5534C125.383 25.8724 132.005 24.712 138.355 26.4741C144.705 28.2362 141.999 37.5627 142.351 39.9453C142.703 42.3278 137.373 45.3261 133.56 44.0566C129.746 42.7872 132.56 40.6225 132.884 41.1483C133.143 41.5689 134.051 41.6615 134.472 41.6551C140.462 36.2592 136.657 32.6902 134.005 31.5802C124.882 30.4433 124.883 41.7987 126.024 47.6185C136.114 66.8354 151.635 68.7255 163.664 69.6066C173.286 70.3116 181.063 63.1555 183.748 59.4893C185.022 60.0893 187.504 61.1841 187.245 60.7635C186.921 60.2377 185.637 58.9304 183.704 56.5715C182.158 54.6844 183.818 50.1138 184.842 48.0644C182.8 46.8215 179.467 41.0699 178.056 38.3494Z" fill="#FF2768"/>
<path d="M194.033 49.5187C193.999 49.5176 193.965 49.5168 193.931 49.5162M193.931 49.5162C192.005 49.4852 188.42 50.2465 188.719 53.578C189.098 57.8173 194.808 59.0584 200.822 59.499C201.469 60.4621 202.953 62.4386 203.715 62.6394C202.951 60.8821 201.984 56.8284 204.228 54.6723C201.815 52.937 196.378 49.4764 193.931 49.5162ZM220.903 49.1124C225.211 49.6814 225.688 51.9605 225.388 53.0289C222.935 58.1597 216.419 59.3539 213.467 59.3096C212.98 60.5904 211.399 61.9937 210.67 62.5353C212.133 58.9051 210.778 55.7239 209.918 54.5871M220.903 49.1124C219.009 49.3189 214.16 50.7031 209.918 54.5871M220.903 49.1124C216.631 49.5977 211.8 52.9644 209.918 54.5871M204.062 1.34669C191.236 3.48438 168.078 13.8777 178.056 38.3494C179.467 41.0699 182.8 46.8215 184.842 48.0644C183.818 50.1138 182.158 54.6844 183.704 56.5715C185.637 58.9304 186.921 60.2377 187.245 60.7635C187.504 61.1841 185.022 60.0893 183.748 59.4893C181.063 63.1555 173.286 70.3116 163.664 69.6066C151.635 68.7255 136.114 66.8354 126.024 47.6185C124.883 41.7987 124.882 30.4433 134.005 31.5802C136.657 32.6902 140.462 36.2592 134.472 41.6552C134.051 41.6615 133.143 41.5689 132.884 41.1483C132.56 40.6225 129.746 42.7872 133.56 44.0566C137.373 45.3261 142.703 42.3278 142.351 39.9453C141.999 37.5627 144.705 28.2362 138.355 26.4741C132.005 24.712 125.383 25.8724 123.526 28.5534C121.669 31.2343 119.243 38.1688 119.583 39.7556C119.923 41.3424 119.185 55.4151 126.211 60.0855C133.237 64.756 138.738 73.1636 152.691 75.8732C154.918 76.8126 160.197 78.7854 163.491 79.1605C159.205 81.5241 149.554 86.0021 145.239 85.0054C139.845 83.7596 130.378 84.9626 130.843 73.8125C131.352 72.5667 132.507 70.9222 133.064 74.3098C133.069 74.6635 133.334 75.4201 134.348 75.6172C135.617 75.8635 136.458 68.6874 132.657 68.2137C128.855 67.74 122.905 71.5435 123.296 76.5786C123.688 81.6137 125.34 86.3646 130.426 88.1457C133.62 90.3088 141.521 94.294 147.571 92.9299C154.943 92.5542 170.995 90.4567 176.226 85.0721C174.474 87.663 170.591 93.0097 169.083 93.6691C163.244 97.9131 151.321 106.829 150.334 108.542C146.19 113.291 139.946 124.245 148.127 130.066C158.354 137.341 172.2 132.889 173.033 125.182C173.866 117.476 173.862 117.21 172.906 116.694C171.949 116.178 170.725 118.849 171.373 119.901C172.021 120.952 167.371 127.124 163.885 126.646C160.4 126.167 155.374 128.365 153.655 119.105C156.224 114.733 162.943 105.912 169.262 105.606C177.161 105.222 185.837 93.4182 186.766 92.0777C187.694 90.7373 193.301 85.0817 193.277 83.4902C193.835 85.6043 194.268 90.5858 191.531 93.5983C188.794 96.6108 190.881 99.4449 192.267 100.485C191.749 101.112 190.085 102.588 187.569 103.474C184.423 104.583 176.043 115.055 189.711 119.892C190.774 120.495 193.216 121.643 194.477 121.412C196.054 121.123 189.988 117.234 190.6 115.899C191.213 114.563 190.541 111.92 197.147 109.698C203.754 107.477 206.227 103.725 204.291 101.101C202.742 99.002 202.339 97.4161 202.331 96.8856C203.562 94.6562 205.577 89.8858 203.788 88.6391C201.551 87.0807 201.184 83.6371 201.168 82.5761C201.152 81.5151 203.721 84.1297 203.353 80.6862C203.965 79.3504 205.505 76.6212 206.767 76.39C208.343 76.1011 205.458 73.4912 205.771 73.2212C206.083 72.9512 207.323 71.3407 208.932 73.1739C208.515 73.5338 207.685 74.413 207.695 75.0496C207.707 75.8453 207.711 76.1106 208.031 76.3711C208.351 76.6316 212.52 80.5489 211.916 82.4152C212.025 82.6788 212.494 83.0432 213.496 82.3915C214.749 81.5768 213.272 88.4971 211.375 88.5255C210.548 89.5991 209.667 92.743 212.762 96.7294C212.666 97.3499 212.228 99.0722 211.245 100.997C210.017 103.403 212.929 107.87 218.007 109.121C223.085 110.371 228.206 114.54 222.896 118.864C218.647 122.324 224.081 120.615 227.329 119.328C230.568 117.423 236.206 112.456 232.848 107.837C229.491 103.218 225.904 101.574 224.53 101.329C223.682 100.988 222.485 99.8737 224.483 98.1458C226.48 96.4179 223.552 92.3228 221.838 90.4913C221.39 88.7293 220.678 84.7779 221.411 83.0689C224.961 87.8799 233.082 98.0701 237.163 100.344C242.264 103.186 249.251 105.204 250.843 105.976C252.436 106.748 266.18 116.624 260.573 122.28C254.966 127.935 245.135 125.96 244.048 116.69C243.826 115.986 243.2 115.005 242.467 116.714C241.55 118.85 243.282 128.906 248.051 130.692C252.821 132.478 263.921 134.699 269.176 126.661C274.43 118.623 269.566 110.471 262.2 104.214C254.834 97.9567 241.453 91.2589 238.501 84.1396C246.562 87.5564 264.886 93.6142 273.693 90.5108C284.702 86.6316 293.165 81.7292 290.806 71.9479C288.957 68.1728 284.019 62.1799 279.054 68.4095C278.977 70.3563 279.328 74.0831 281.342 73.4162C281.549 73.1478 281.894 72.2936 281.622 71.0242C281.928 70.3121 282.798 69.3086 283.835 70.991C285.131 73.0941 284.59 79.2045 273.578 82.8184C267.996 83.0789 255.739 82.3957 251.367 77.5794C259.771 75.7733 279.123 68.8329 289.295 55.5211C302.009 38.8812 288.502 23.6953 283.436 23.2405C278.371 22.7857 269.028 23.8807 270.935 32.979C270.241 35.9078 270.879 41.9474 278.985 42.6751C280.659 41.8541 283.497 39.9544 281.458 38.9236C281.038 39.0184 280.073 39.3689 279.577 40.0131C278.957 40.8183 270.275 31.1317 280.683 29.384C283.528 29.3414 288.933 31.3829 287.796 39.89C287.842 42.9846 287.063 50.089 283.577 53.7495C279.219 58.3251 257.945 73.5012 241.404 66.8507C238.224 65.6602 231.726 62.4322 231.169 59.0446C230.851 58.8724 229.712 58.8541 227.708 60.1576C229.576 58.184 232.647 53.9815 231.066 52.1479C230.262 51.2163 230.253 48.4988 228.47 47.6765C231.691 44.6213 238.105 36.5482 237.987 28.6967C237.84 18.8823 231.691 9.42304 224.373 6.34885C217.054 3.27466 211.016 1.24256 204.062 1.34669Z" stroke="#00C6D2" stroke-width="2"/>
<path d="M220.893 50.2878C218.614 50.1068 213.04 53.7207 210.538 55.5503C211.806 55.7463 211.968 59.5611 211.891 61.444C212.144 61.4403 212.82 60.1757 213.127 59.5438C222.607 59.1331 224.431 54.2671 224.735 53.4561C225.039 52.6451 223.742 50.5139 220.893 50.2878Z" fill="white" stroke="white" stroke-width="0.4"/>
<path d="M189.994 56.1269C187.904 51.6421 192.02 50.6306 194.34 50.6855C195.095 50.4591 200.603 53.7279 203.263 55.3906C202.021 56.9146 202.175 60.156 202.407 61.5862L201.115 59.7238C194.793 59.8185 191.067 57.3653 189.994 56.1269Z" fill="white" stroke="white" stroke-width="0.5"/>
<path d="M46.504 52.8879C26.3193 38.4682 7.09103 46.8797 0 52.8879V135H375V38.8687C367.744 54.8906 346.9 80.1251 321.57 52.8879C296.24 25.6507 265.501 32.193 253.298 38.8687C233.113 67.3076 196.075 64.0698 180.079 58.8961C154.354 30.4572 120.877 38.368 107.355 45.8783C95.4815 54.223 66.6887 67.3076 46.504 52.8879Z" fill="#050533"/>
</svg>
