<svg width="24" height="20" viewBox="0 0 24 20" fill="none" xmlns="http://www.w3.org/2000/svg">
<path d="M24 3.457V17.366C24 18.27 23.268 19.002 22.364 19.002H18.545V9.73L12 14.64L5.455 9.73V19.003H1.636C1.42107 19.003 1.20825 18.9606 1.0097 18.8784C0.811145 18.7961 0.63075 18.6755 0.47882 18.5235C0.32689 18.3714 0.206404 18.191 0.124246 17.9924C0.0420884 17.7938 -0.000131068 17.5809 3.05652e-07 17.366V3.457C3.05652e-07 1.434 2.309 0.278998 3.927 1.493L5.455 2.64L12 7.548L18.545 2.638L20.073 1.493C21.69 0.279998 24 1.434 24 3.457Z" fill="white"/>
</svg>
