<svg width="30" height="30" viewBox="0 0 30 30" fill="none" xmlns="http://www.w3.org/2000/svg">
<path d="M3 7.12501C3 6.82664 3.11853 6.54049 3.3295 6.32952C3.54048 6.11854 3.82663 6.00001 4.125 6.00001H25.875C26.1734 6.00001 26.4595 6.11854 26.6705 6.32952C26.8815 6.54049 27 6.82664 27 7.12501C27 7.42338 26.8815 7.70953 26.6705 7.92051C26.4595 8.13148 26.1734 8.25001 25.875 8.25001H4.125C3.82663 8.25001 3.54048 8.13148 3.3295 7.92051C3.11853 7.70953 3 7.42338 3 7.12501Z" fill="white"/>
<path d="M3 14.625C3 14.3266 3.11853 14.0405 3.3295 13.8295C3.54048 13.6185 3.82663 13.5 4.125 13.5H25.875C26.1734 13.5 26.4595 13.6185 26.6705 13.8295C26.8815 14.0405 27 14.3266 27 14.625C27 14.9234 26.8815 15.2095 26.6705 15.4205C26.4595 15.6315 26.1734 15.75 25.875 15.75H4.125C3.82663 15.75 3.54048 15.6315 3.3295 15.4205C3.11853 15.2095 3 14.9234 3 14.625Z" fill="white"/>
<path d="M4.125 21C3.82663 21 3.54048 21.1185 3.3295 21.3295C3.11853 21.5405 3 21.8266 3 22.125C3 22.4234 3.11853 22.7095 3.3295 22.9205C3.54048 23.1315 3.82663 23.25 4.125 23.25H25.875C26.1734 23.25 26.4595 23.1315 26.6705 22.9205C26.8815 22.7095 27 22.4234 27 22.125C27 21.8266 26.8815 21.5405 26.6705 21.3295C26.4595 21.1185 26.1734 21 25.875 21H4.125Z" fill="white"/>
</svg>
