<svg width="179" height="143" viewBox="0 0 179 143" fill="none" xmlns="http://www.w3.org/2000/svg">
<path d="M60.0903 40.6176C50.089 14.6204 73.2375 3.60468 86.0619 1.34645C93.0165 1.24232 99.0564 3.40592 106.378 6.67737C113.699 9.94881 119.857 19.9998 120.013 30.4224C120.138 38.7605 113.732 47.3279 110.513 50.5693C112.297 51.4442 112.309 54.3301 113.114 55.3202C114.697 57.2688 111.629 61.7289 109.763 63.8231C111.766 62.4407 112.904 62.4612 113.223 62.6443C113.783 66.2423 120.285 69.6763 123.465 70.9436C140.013 78.0214 161.273 61.9248 165.627 57.0697C169.11 53.1857 169.882 45.6419 169.833 42.3555C170.962 33.3224 165.555 31.1493 162.71 31.1919C152.303 33.0383 160.994 43.3331 161.614 42.4785C162.11 41.7949 163.074 41.4236 163.494 41.3234C165.534 42.4198 162.697 44.4346 161.024 45.3049C152.918 44.5247 152.274 38.1103 152.965 35.0006C151.05 25.3369 160.391 24.1827 165.458 24.6704C170.524 25.158 184.045 41.2974 171.346 58.9564C161.187 73.0836 141.841 80.4359 133.438 82.3462C137.815 87.465 150.073 88.2018 155.655 87.9304C166.664 84.1028 167.199 77.6144 165.901 75.3798C164.862 73.5921 163.993 74.657 163.688 75.4129C163.961 76.7612 163.616 77.668 163.41 77.9529C161.397 78.6592 161.042 74.7012 161.117 72.6338C166.077 66.0228 171.02 72.3916 172.872 76.4024C175.241 86.7919 166.782 91.9902 155.777 96.0995C146.973 99.387 128.643 92.9369 120.578 89.3009C123.537 96.864 136.924 103.989 144.296 110.641C151.668 117.293 156.54 125.954 151.293 134.485C146.045 143.017 134.943 140.647 130.172 138.746C125.401 136.845 123.66 126.165 124.575 123.897C125.306 122.083 125.933 123.125 126.155 123.873C127.251 133.718 137.084 135.825 142.686 129.824C148.287 123.824 134.534 113.323 132.941 112.502C131.348 111.68 124.359 109.531 119.255 106.508C115.172 104.09 107.042 93.2603 103.487 88.1481C102.755 89.9622 103.472 94.1591 103.921 96.0307C105.637 97.9773 108.569 102.329 106.573 104.162C104.576 105.995 105.775 107.179 106.623 107.542C107.997 107.803 111.586 109.553 114.948 114.461C118.31 119.37 112.676 124.639 109.439 126.659C106.192 128.023 100.76 129.832 105.005 126.162C110.311 121.575 105.186 117.143 100.107 115.811C95.0282 114.478 92.1115 109.732 93.338 107.178C94.3192 105.134 94.7555 103.306 94.8511 102.647C91.7522 98.4106 92.6297 95.0728 93.4558 93.9334C95.3525 93.905 96.8234 86.5573 95.5716 87.4213C94.5702 88.1125 94.1006 87.7251 93.9911 87.445C94.5938 85.4637 90.421 81.2998 90.1007 81.0228C89.7803 80.7459 89.7761 80.4642 89.7635 79.6191C89.7533 78.943 90.5825 78.0102 90.9984 77.6283C89.3883 75.6801 88.1491 77.3892 87.8372 77.6757C87.5253 77.9621 90.4126 80.7364 88.8362 81.0418C87.5751 81.2861 86.0376 84.183 85.4264 85.6009C85.7974 89.2582 83.2263 86.4791 83.2431 87.6059C83.26 88.7327 83.631 92.3899 85.8691 94.047C87.6596 95.3726 85.6486 100.437 84.4192 102.803C84.4277 103.366 84.8323 105.051 86.3834 107.282C88.3223 110.07 85.8524 114.052 79.2478 116.405C72.6431 118.758 73.3175 121.565 72.7063 122.983C72.0952 124.401 78.1647 128.537 76.5883 128.842C75.3272 129.086 72.8848 127.864 71.8213 127.223C58.1482 122.074 66.5188 110.96 69.6631 109.786C72.1785 108.847 73.8414 107.282 74.3584 106.617C72.9717 105.51 70.8819 102.499 73.6165 99.302C76.3511 96.1054 75.9135 90.815 75.3529 88.5693C75.3782 90.2595 69.7767 96.2602 68.8495 97.6829C67.9222 99.1055 59.2566 111.633 51.3579 112.033C45.039 112.353 38.3284 121.713 35.763 126.354C37.4912 136.189 42.5153 133.86 46.0011 134.371C49.4868 134.883 54.1315 128.333 53.4824 127.216C52.8333 126.098 54.0555 123.262 55.0123 123.812C55.9691 124.361 55.9733 124.642 55.1473 132.826C54.3213 141.009 40.4797 145.724 30.2459 137.988C22.0589 131.8 28.2928 120.173 32.4332 115.133C33.4178 113.316 45.3334 103.858 51.1681 99.3564C52.6753 98.6576 56.5532 92.9832 58.3038 90.2334C53.0774 95.9467 37.0272 98.1594 29.6554 98.5515C23.6062 99.9945 15.7013 95.7551 12.505 93.4549C7.41767 91.5588 5.76117 86.512 5.36492 81.1646C4.96866 75.8172 10.9158 71.7836 14.7176 72.2901C18.5194 72.7967 17.685 80.4166 16.4163 80.1539C15.4014 79.9437 15.1364 79.1399 15.1307 78.7643C14.571 75.1662 13.4167 76.9116 12.9095 78.2341C12.4544 90.0746 21.921 88.8059 27.3161 90.1339C31.6321 91.1963 41.2785 86.4498 45.5622 83.9438C42.2678 83.5423 36.9877 81.4425 34.7594 80.4427C20.8039 77.5524 15.295 68.6187 8.26455 63.6523C1.23409 58.686 1.9589 43.7421 1.61748 42.0567C1.27606 40.3713 3.69531 33.0094 5.54982 30.1641C7.40434 27.3187 14.0259 26.0926 20.3777 27.9697C26.7295 29.8469 24.0321 39.7488 24.3862 42.2793C24.7403 44.8098 19.4127 47.9888 15.5983 46.6372C11.7838 45.2855 14.5951 42.9894 14.9196 43.548C15.1793 43.9949 16.0871 44.0941 16.5086 44.0877C22.4937 38.363 18.6848 34.5694 16.0322 33.3882C6.90787 32.1724 6.9198 44.2313 8.06631 50.4128C18.1738 70.8296 33.6972 72.8512 45.7264 73.7981C55.3498 74.5556 63.1197 66.9634 65.8017 63.0726C67.076 63.7109 69.5597 64.8759 69.3001 64.429C68.9755 63.8703 67.69 62.4808 65.7553 59.9739C64.2076 57.9685 65.8634 53.1163 66.8848 50.9408C64.8414 49.619 61.5038 43.5079 60.0903 40.6176Z" fill="#FF2768"/>
<path d="M76.0775 52.4937C76.0439 52.4926 76.0098 52.4917 75.9751 52.4911M75.9751 52.4911C74.0491 52.4563 70.4653 53.2614 70.7668 56.7996C71.1504 61.3019 76.8616 62.6252 82.8762 63.0987C83.5239 64.1221 85.0098 66.2224 85.7718 66.4364C85.0061 64.5695 84.0352 60.2637 86.2775 57.9761C83.863 56.1311 78.4221 52.451 75.9751 52.4911ZM102.947 52.0872C107.256 52.6955 107.735 55.1162 107.436 56.2505C104.988 61.6969 98.4726 62.959 95.5208 62.9093C95.0352 64.269 93.4555 65.7578 92.7264 66.3322C94.1864 62.4785 92.8288 59.099 91.9676 57.8909M102.947 52.0872C101.053 52.3048 96.206 53.7702 91.9676 57.8909M102.947 52.0872C98.6763 52.5986 93.8479 56.1694 91.9676 57.8909M86.0619 1.34645C73.2375 3.60468 50.089 14.6204 60.0903 40.6176C61.5038 43.5079 64.8414 49.619 66.8848 50.9408C65.8634 53.1163 64.2076 57.9685 65.7553 59.9739C67.69 62.4808 68.9755 63.8703 69.3001 64.429C69.5597 64.8759 67.076 63.7109 65.8017 63.0726C63.1197 66.9634 55.3498 74.5556 45.7264 73.7981C33.6972 72.8512 18.1738 70.8296 8.06631 50.4128C6.9198 44.2313 6.90787 32.1724 16.0322 33.3882C18.6848 34.5694 22.4937 38.363 16.5086 44.0877C16.0871 44.0941 15.1793 43.9949 14.9196 43.548C14.5951 42.9894 11.7838 45.2855 15.5983 46.6372C19.4127 47.9888 24.7403 44.8098 24.3862 42.2793C24.0321 39.7488 26.7295 29.8469 20.3777 27.9697C14.0259 26.0926 7.40434 27.3187 5.54982 30.1641C3.69531 33.0094 1.27606 40.3712 1.61748 42.0567C1.9589 43.7421 1.23409 58.686 8.26455 63.6523C15.295 68.6187 20.8039 77.5524 34.7594 80.4427C36.9877 81.4425 42.2678 83.5423 45.5622 83.9438C41.2785 86.4498 31.6321 91.1963 27.3161 90.1339C21.921 88.8059 12.4544 90.0746 12.9095 78.2341C13.4167 76.9116 14.571 75.1662 15.1307 78.7643C15.1364 79.1399 15.4014 79.9437 16.4163 80.1539C17.685 80.4166 18.5194 72.7967 14.7176 72.2901C10.9158 71.7835 4.96866 75.8172 5.36492 81.1646C5.76117 86.512 7.41767 91.5588 12.505 93.4549C15.7013 95.755 23.6062 99.9945 29.6554 98.5515C37.0272 98.1594 53.0774 95.9467 58.3038 90.2334C56.5532 92.9832 52.6753 98.6576 51.1681 99.3564C45.3334 103.858 33.4178 113.316 32.4332 115.133C28.2928 120.173 22.0589 131.8 30.2459 137.988C40.4797 145.724 54.3213 141.009 55.1473 132.826C55.9733 124.642 55.9691 124.361 55.0123 123.812C54.0555 123.262 52.8333 126.098 53.4824 127.216C54.1315 128.333 49.4868 134.883 46.0011 134.371C42.5153 133.86 37.4912 136.189 35.763 126.354C38.3284 121.713 45.039 112.353 51.3579 112.033C59.2566 111.633 67.9222 99.1055 68.8495 97.6829C69.7767 96.2602 75.3782 90.2595 75.3529 88.5693C75.9135 90.815 76.3511 96.1054 73.6165 99.302C70.8819 102.499 72.9717 105.51 74.3584 106.617C73.8414 107.282 72.1785 108.847 69.6631 109.786C66.5188 110.96 58.1482 122.074 71.8213 127.223C72.8848 127.864 75.3272 129.086 76.5883 128.842C78.1647 128.537 72.0952 124.401 72.7063 122.983C73.3175 121.565 72.6431 118.758 79.2477 116.405C85.8524 114.052 88.3223 110.07 86.3834 107.282C84.8323 105.051 84.4277 103.366 84.4192 102.803C85.6486 100.437 87.6596 95.3726 85.8691 94.047C83.631 92.3899 83.26 88.7327 83.2431 87.6059C83.2263 86.4791 85.7974 89.2582 85.4264 85.6009C86.0376 84.183 87.5751 81.2861 88.8362 81.0418C90.4126 80.7364 87.5253 77.9621 87.8372 77.6757C88.1491 77.3892 89.3883 75.6802 90.9984 77.6283C90.5825 78.0102 89.7533 78.9431 89.7635 79.6191C89.7761 80.4642 89.7803 80.7459 90.1007 81.0228C90.421 81.2998 94.5938 85.4637 93.9911 87.445C94.1006 87.7251 94.5702 88.1125 95.5716 87.4213C96.8234 86.5573 95.3525 93.905 93.4558 93.9334C92.6297 95.0728 91.7522 98.4106 94.851 102.647C94.7555 103.306 94.3192 105.134 93.338 107.178C92.1115 109.732 95.0282 114.478 100.107 115.811C105.186 117.143 110.311 121.575 105.005 126.162C100.76 129.832 106.192 128.023 109.439 126.659C112.676 124.639 118.31 119.37 114.948 114.461C111.586 109.553 107.997 107.803 106.623 107.542C105.775 107.179 104.576 105.995 106.573 104.162C108.569 102.329 105.637 97.9773 103.921 96.0307C103.472 94.1591 102.755 89.9622 103.487 88.148C107.042 93.2603 115.172 104.09 119.255 106.508C124.359 109.531 131.348 111.68 132.941 112.502C134.534 113.323 148.287 123.824 142.686 129.824C137.084 135.825 127.251 133.718 126.155 123.873C125.933 123.125 125.306 122.083 124.575 123.897C123.66 126.165 125.401 136.845 130.172 138.746C134.943 140.647 146.045 143.017 151.293 134.485C156.54 125.954 151.668 117.293 144.296 110.641C136.924 103.989 123.537 96.864 120.578 89.3009C128.643 92.9369 146.973 99.387 155.777 96.0995C166.782 91.9902 175.241 86.7919 172.872 76.4024C171.02 72.3916 166.077 66.0228 161.117 72.6338C161.042 74.7012 161.397 78.6592 163.41 77.9529C163.616 77.668 163.961 76.7612 163.688 75.4129C163.993 74.657 164.862 73.5921 165.901 75.3798C167.199 77.6144 166.664 84.1028 155.655 87.9304C150.073 88.2019 137.815 87.465 133.438 82.3462C141.841 80.4359 161.187 73.0836 171.346 58.9564C184.045 41.2974 170.524 25.158 165.458 24.6704C160.391 24.1827 151.05 25.3369 152.965 35.0006C152.274 38.1103 152.918 44.5247 161.024 45.3049C162.697 44.4346 165.534 42.4198 163.494 41.3234C163.074 41.4236 162.11 41.7949 161.614 42.4785C160.994 43.3331 152.303 33.0383 162.71 31.1919C165.555 31.1493 170.962 33.3224 169.833 42.3555C169.882 45.6419 169.11 53.1857 165.627 57.0697C161.273 61.9248 140.013 78.0214 123.465 70.9436C120.285 69.6763 113.783 66.2423 113.223 62.6443C112.904 62.4612 111.766 62.4407 109.763 63.8231C111.629 61.7289 114.697 57.2688 113.114 55.3202C112.309 54.3301 112.297 51.4442 110.513 50.5693C113.732 47.3279 120.138 38.7605 120.013 30.4224C119.857 19.9998 113.699 9.94881 106.378 6.67737C99.0564 3.40592 93.0165 1.24232 86.0619 1.34645Z" stroke="#00C6D2" stroke-width="2"/>
<path d="M60.0903 40.6176C50.089 14.6204 73.2375 3.60468 86.0619 1.34645C93.0165 1.24232 99.0564 3.40592 106.378 6.67737C113.699 9.94881 119.857 19.9998 120.013 30.4224C120.138 38.7605 113.732 47.3279 110.513 50.5693C112.297 51.4442 112.309 54.3301 113.114 55.3202C114.697 57.2688 111.629 61.7289 109.763 63.8231C111.766 62.4407 112.904 62.4612 113.223 62.6443C113.783 66.2423 120.285 69.6763 123.465 70.9436C140.013 78.0214 161.273 61.9248 165.627 57.0697C169.11 53.1857 169.882 45.6419 169.833 42.3555C170.962 33.3224 165.555 31.1493 162.71 31.1919C152.303 33.0383 160.994 43.3331 161.614 42.4785C162.11 41.7949 163.074 41.4236 163.494 41.3234C165.534 42.4198 162.697 44.4346 161.024 45.3049C152.918 44.5247 152.274 38.1103 152.965 35.0006C151.05 25.3369 160.391 24.1827 165.458 24.6704C170.524 25.158 184.045 41.2974 171.346 58.9564C161.187 73.0836 141.841 80.4359 133.438 82.3462C137.815 87.465 150.073 88.2018 155.655 87.9304C166.664 84.1028 167.199 77.6144 165.901 75.3798C164.862 73.5921 163.993 74.657 163.688 75.4129C163.961 76.7612 163.616 77.668 163.41 77.9529C161.397 78.6592 161.042 74.7012 161.117 72.6338C166.077 66.0228 171.02 72.3916 172.872 76.4024C175.241 86.7919 166.782 91.9902 155.777 96.0995C146.973 99.387 128.643 92.9369 120.578 89.3009C123.537 96.864 136.924 103.989 144.296 110.641C151.668 117.293 156.54 125.954 151.293 134.485C146.045 143.017 134.943 140.647 130.172 138.746C125.401 136.845 123.66 126.165 124.575 123.897C125.306 122.083 125.933 123.125 126.155 123.873C127.251 133.718 137.084 135.825 142.686 129.824C148.287 123.824 134.534 113.323 132.941 112.502C131.348 111.68 124.359 109.531 119.255 106.508C115.172 104.09 107.042 93.2603 103.487 88.1481C102.755 89.9622 103.472 94.1591 103.921 96.0307C105.637 97.9773 108.569 102.329 106.573 104.162C104.576 105.995 105.775 107.179 106.623 107.542C107.997 107.803 111.586 109.553 114.948 114.461C118.31 119.37 112.676 124.639 109.439 126.659C106.192 128.023 100.76 129.832 105.005 126.162C110.311 121.575 105.186 117.143 100.107 115.811C95.0282 114.478 92.1115 109.732 93.338 107.178C94.3192 105.134 94.7555 103.306 94.8511 102.647C91.7522 98.4106 92.6297 95.0728 93.4558 93.9334C95.3525 93.905 96.8234 86.5573 95.5716 87.4213C94.5702 88.1125 94.1006 87.7251 93.9911 87.445C94.5938 85.4637 90.421 81.2998 90.1007 81.0228C89.7803 80.7459 89.7761 80.4642 89.7635 79.6191C89.7533 78.943 90.5825 78.0102 90.9984 77.6283C89.3883 75.6801 88.1491 77.3892 87.8372 77.6757C87.5253 77.9621 90.4126 80.7364 88.8362 81.0418C87.5751 81.2861 86.0376 84.183 85.4264 85.6009C85.7974 89.2582 83.2263 86.4791 83.2431 87.6059C83.26 88.7327 83.631 92.3899 85.8691 94.047C87.6596 95.3726 85.6486 100.437 84.4192 102.803C84.4277 103.366 84.8323 105.051 86.3834 107.282C88.3223 110.07 85.8524 114.052 79.2478 116.405C72.6431 118.758 73.3175 121.565 72.7063 122.983C72.0952 124.401 78.1647 128.537 76.5883 128.842C75.3272 129.086 72.8848 127.864 71.8213 127.223C58.1482 122.074 66.5188 110.96 69.6631 109.786C72.1785 108.847 73.8414 107.282 74.3584 106.617C72.9717 105.51 70.8819 102.499 73.6165 99.302C76.3511 96.1054 75.9135 90.815 75.3529 88.5693C75.3782 90.2595 69.7767 96.2602 68.8495 97.6829C67.9222 99.1055 59.2566 111.633 51.3579 112.033C45.039 112.353 38.3284 121.713 35.763 126.354C37.4912 136.189 42.5153 133.86 46.0011 134.371C49.4868 134.883 54.1315 128.333 53.4824 127.216C52.8333 126.098 54.0555 123.262 55.0123 123.812C55.9691 124.361 55.9733 124.642 55.1473 132.826C54.3213 141.009 40.4797 145.724 30.2459 137.988C22.0589 131.8 28.2928 120.173 32.4332 115.133C33.4178 113.316 45.3334 103.858 51.1681 99.3564C52.6753 98.6576 56.5532 92.9832 58.3038 90.2334C53.0774 95.9467 37.0272 98.1594 29.6554 98.5515C23.6062 99.9945 15.7013 95.7551 12.505 93.4549C7.41767 91.5588 5.76117 86.512 5.36492 81.1646C4.96866 75.8172 10.9158 71.7836 14.7176 72.2901C18.5194 72.7967 17.685 80.4166 16.4163 80.1539C15.4014 79.9437 15.1364 79.1399 15.1307 78.7643C14.571 75.1662 13.4167 76.9116 12.9095 78.2341C12.4544 90.0746 21.921 88.8059 27.3161 90.1339C31.6321 91.1963 41.2785 86.4498 45.5622 83.9438C42.2678 83.5423 36.9877 81.4425 34.7594 80.4427C20.8039 77.5524 15.295 68.6187 8.26455 63.6523C1.23409 58.686 1.9589 43.7421 1.61748 42.0567C1.27606 40.3713 3.69531 33.0094 5.54982 30.1641C7.40434 27.3187 14.0259 26.0926 20.3777 27.9697C26.7295 29.8469 24.0321 39.7488 24.3862 42.2793C24.7403 44.8098 19.4127 47.9888 15.5983 46.6372C11.7838 45.2855 14.5951 42.9894 14.9196 43.548C15.1793 43.9949 16.0871 44.0941 16.5086 44.0877C22.4937 38.363 18.6848 34.5694 16.0322 33.3882C6.90787 32.1724 6.9198 44.2313 8.06631 50.4128C18.1738 70.8296 33.6972 72.8512 45.7264 73.7981C55.3498 74.5556 63.1197 66.9634 65.8017 63.0726C67.076 63.7109 69.5597 64.8759 69.3001 64.429C68.9755 63.8703 67.69 62.4808 65.7553 59.9739C64.2076 57.9685 65.8634 53.1163 66.8848 50.9408C64.8414 49.619 61.5038 43.5079 60.0903 40.6176Z" fill="#FF2768"/>
<path d="M76.0775 52.4937C76.0439 52.4926 76.0098 52.4917 75.9751 52.4911M75.9751 52.4911C74.0491 52.4563 70.4653 53.2614 70.7668 56.7996C71.1504 61.3019 76.8616 62.6252 82.8762 63.0987C83.5239 64.1221 85.0098 66.2224 85.7718 66.4364C85.0061 64.5695 84.0352 60.2637 86.2775 57.9761C83.863 56.1311 78.4221 52.451 75.9751 52.4911ZM102.947 52.0872C107.256 52.6955 107.735 55.1162 107.436 56.2505C104.988 61.6969 98.4726 62.959 95.5208 62.9093C95.0352 64.269 93.4555 65.7578 92.7264 66.3322C94.1864 62.4785 92.8288 59.099 91.9676 57.8909M102.947 52.0872C101.053 52.3048 96.206 53.7702 91.9676 57.8909M102.947 52.0872C98.6763 52.5986 93.8479 56.1694 91.9676 57.8909M86.0619 1.34645C73.2375 3.60468 50.089 14.6204 60.0903 40.6176C61.5038 43.5079 64.8414 49.619 66.8848 50.9408C65.8634 53.1163 64.2076 57.9685 65.7553 59.9739C67.69 62.4808 68.9755 63.8703 69.3001 64.429C69.5597 64.8759 67.076 63.7109 65.8017 63.0726C63.1197 66.9634 55.3498 74.5556 45.7264 73.7981C33.6972 72.8512 18.1738 70.8296 8.06631 50.4128C6.9198 44.2313 6.90787 32.1724 16.0322 33.3882C18.6848 34.5694 22.4937 38.363 16.5086 44.0877C16.0871 44.0941 15.1793 43.9949 14.9196 43.548C14.5951 42.9894 11.7838 45.2855 15.5983 46.6372C19.4127 47.9888 24.7403 44.8098 24.3862 42.2793C24.0321 39.7488 26.7295 29.8469 20.3777 27.9697C14.0259 26.0926 7.40434 27.3187 5.54982 30.1641C3.69531 33.0094 1.27606 40.3712 1.61748 42.0567C1.9589 43.7421 1.23409 58.686 8.26455 63.6523C15.295 68.6187 20.8039 77.5524 34.7594 80.4427C36.9877 81.4425 42.2678 83.5423 45.5622 83.9438C41.2785 86.4498 31.6321 91.1963 27.3161 90.1339C21.921 88.8059 12.4544 90.0746 12.9095 78.2341C13.4167 76.9116 14.571 75.1662 15.1307 78.7643C15.1364 79.1399 15.4014 79.9437 16.4163 80.1539C17.685 80.4166 18.5194 72.7967 14.7176 72.2901C10.9158 71.7835 4.96866 75.8172 5.36492 81.1646C5.76117 86.512 7.41767 91.5588 12.505 93.4549C15.7013 95.755 23.6062 99.9945 29.6554 98.5515C37.0272 98.1594 53.0774 95.9467 58.3038 90.2334C56.5532 92.9832 52.6753 98.6576 51.1681 99.3564C45.3334 103.858 33.4178 113.316 32.4332 115.133C28.2928 120.173 22.0589 131.8 30.2459 137.988C40.4797 145.724 54.3213 141.009 55.1473 132.826C55.9733 124.642 55.9691 124.361 55.0123 123.812C54.0555 123.262 52.8333 126.098 53.4824 127.216C54.1315 128.333 49.4868 134.883 46.0011 134.371C42.5153 133.86 37.4912 136.189 35.763 126.354C38.3284 121.713 45.039 112.353 51.3579 112.033C59.2566 111.633 67.9222 99.1055 68.8495 97.6829C69.7767 96.2602 75.3782 90.2595 75.3529 88.5693C75.9135 90.815 76.3511 96.1054 73.6165 99.302C70.8819 102.499 72.9717 105.51 74.3584 106.617C73.8414 107.282 72.1785 108.847 69.6631 109.786C66.5188 110.96 58.1482 122.074 71.8213 127.223C72.8848 127.864 75.3272 129.086 76.5883 128.842C78.1647 128.537 72.0952 124.401 72.7063 122.983C73.3175 121.565 72.6431 118.758 79.2477 116.405C85.8524 114.052 88.3223 110.07 86.3834 107.282C84.8323 105.051 84.4277 103.366 84.4192 102.803C85.6486 100.437 87.6596 95.3726 85.8691 94.047C83.631 92.3899 83.26 88.7327 83.2431 87.6059C83.2263 86.4791 85.7974 89.2582 85.4264 85.6009C86.0376 84.183 87.5751 81.2861 88.8362 81.0418C90.4126 80.7364 87.5253 77.9621 87.8372 77.6757C88.1491 77.3892 89.3883 75.6802 90.9984 77.6283C90.5825 78.0102 89.7533 78.9431 89.7635 79.6191C89.7761 80.4642 89.7803 80.7459 90.1007 81.0228C90.421 81.2998 94.5938 85.4637 93.9911 87.445C94.1006 87.7251 94.5702 88.1125 95.5716 87.4213C96.8234 86.5573 95.3525 93.905 93.4558 93.9334C92.6297 95.0728 91.7522 98.4106 94.851 102.647C94.7555 103.306 94.3192 105.134 93.338 107.178C92.1115 109.732 95.0282 114.478 100.107 115.811C105.186 117.143 110.311 121.575 105.005 126.162C100.76 129.832 106.192 128.023 109.439 126.659C112.676 124.639 118.31 119.37 114.948 114.461C111.586 109.553 107.997 107.803 106.623 107.542C105.775 107.179 104.576 105.995 106.573 104.162C108.569 102.329 105.637 97.9773 103.921 96.0307C103.472 94.1591 102.755 89.9622 103.487 88.148C107.042 93.2603 115.172 104.09 119.255 106.508C124.359 109.531 131.348 111.68 132.941 112.502C134.534 113.323 148.287 123.824 142.686 129.824C137.084 135.825 127.251 133.718 126.155 123.873C125.933 123.125 125.306 122.083 124.575 123.897C123.66 126.165 125.401 136.845 130.172 138.746C134.943 140.647 146.045 143.017 151.293 134.485C156.54 125.954 151.668 117.293 144.296 110.641C136.924 103.989 123.537 96.864 120.578 89.3009C128.643 92.9369 146.973 99.387 155.777 96.0995C166.782 91.9902 175.241 86.7919 172.872 76.4024C171.02 72.3916 166.077 66.0228 161.117 72.6338C161.042 74.7012 161.397 78.6592 163.41 77.9529C163.616 77.668 163.961 76.7612 163.688 75.4129C163.993 74.657 164.862 73.5921 165.901 75.3798C167.199 77.6144 166.664 84.1028 155.655 87.9304C150.073 88.2019 137.815 87.465 133.438 82.3462C141.841 80.4359 161.187 73.0836 171.346 58.9564C184.045 41.2974 170.524 25.158 165.458 24.6704C160.391 24.1827 151.05 25.3369 152.965 35.0006C152.274 38.1103 152.918 44.5247 161.024 45.3049C162.697 44.4346 165.534 42.4198 163.494 41.3234C163.074 41.4236 162.11 41.7949 161.614 42.4785C160.994 43.3331 152.303 33.0383 162.71 31.1919C165.555 31.1493 170.962 33.3224 169.833 42.3555C169.882 45.6419 169.11 53.1857 165.627 57.0697C161.273 61.9248 140.013 78.0214 123.465 70.9436C120.285 69.6763 113.783 66.2423 113.223 62.6443C112.904 62.4612 111.766 62.4407 109.763 63.8231C111.629 61.7289 114.697 57.2688 113.114 55.3202C112.309 54.3301 112.297 51.4442 110.513 50.5693C113.732 47.3279 120.138 38.7605 120.013 30.4224C119.857 19.9998 113.699 9.94881 106.378 6.67737C99.0564 3.40592 93.0165 1.24232 86.0619 1.34645Z" stroke="#00C6D2" stroke-width="2"/>
<path d="M102.929 52.6552C100.649 52.4639 95.0779 56.2477 92.5771 58.1635C93.8449 58.3699 94.0102 62.3684 93.9343 64.3419C94.1872 64.3381 94.863 63.0131 95.1693 62.3511C104.649 61.9274 106.469 56.8285 106.773 55.9787C107.076 55.1289 105.778 52.8943 102.929 52.6552Z" fill="white" stroke="white" stroke-width="0.4"/>
<path d="M72.0338 58.7528C69.9398 54.0507 74.0555 52.9935 76.3751 53.0527C77.1304 52.8159 82.6412 56.246 85.3022 57.9906C84.0614 59.5871 84.2176 62.9846 84.4509 64.4838L83.1569 62.5309C76.8346 62.6255 73.1072 60.0516 72.0338 58.7528Z" fill="white" stroke="white" stroke-width="0.5"/>
</svg>
