<svg width="42" height="42" viewBox="0 0 42 42" fill="none" xmlns="http://www.w3.org/2000/svg">
<path fill-rule="evenodd" clip-rule="evenodd" d="M4.2 42H37.8C38.9139 42 39.9822 41.5083 40.7698 40.6332C41.5575 39.758 42 38.571 42 37.3333V4.66667C42 3.42899 41.5575 2.242 40.7698 1.36683C39.9822 0.491665 38.9139 0 37.8 0H4.2C3.08609 0 2.0178 0.491665 1.23015 1.36683C0.442499 2.242 0 3.42899 0 4.66667V37.3333C0 38.571 0.442499 39.758 1.23015 40.6332C2.0178 41.5083 3.08609 42 4.2 42ZM4.2 37.3333V9.33333H37.8V37.3333H4.2ZM18.8825 33H22.5225C22.7504 32.9998 22.9714 32.9218 23.1489 32.7788C23.3264 32.6359 23.4498 32.4366 23.4985 32.214L23.9115 30.335C24.4542 30.0975 24.9687 29.8003 25.4455 29.449L27.2825 30.034C27.5 30.1033 27.7346 30.0962 27.9474 30.0138C28.1602 29.9314 28.3385 29.7787 28.4525 29.581L30.2725 26.428C30.5045 26.021 30.4245 25.507 30.0795 25.189L28.6545 23.889C28.7193 23.3001 28.7193 22.7059 28.6545 22.117L30.0795 20.817C30.4245 20.5 30.5045 19.985 30.2725 19.578L28.4525 16.425C28.3385 16.2275 28.1604 16.075 27.9478 15.9926C27.7352 15.9102 27.5008 15.9029 27.2835 15.972L25.4455 16.557C25.2155 16.388 24.9765 16.231 24.7295 16.088C24.4645 15.933 24.1905 15.794 23.9105 15.67L23.4985 13.787C23.4499 13.5642 23.3267 13.3647 23.1492 13.2215C22.9717 13.0784 22.7506 13.0002 22.5225 13H18.8825C18.6545 13.0002 18.4334 13.0784 18.2559 13.2215C18.0784 13.3647 17.9551 13.5642 17.9065 13.787L17.4985 15.669C17.2325 15.784 16.9725 15.913 16.7195 16.055C16.4575 16.207 16.2035 16.375 15.9595 16.555L14.1225 15.97C13.9051 15.9007 13.6705 15.9078 13.4576 15.9902C13.2448 16.0726 13.0666 16.2253 12.9525 16.423L11.1325 19.576C11.0194 19.774 10.9769 20.0045 11.012 20.2298C11.047 20.4551 11.1576 20.6618 11.3255 20.816L12.7505 22.113C12.6857 22.7019 12.6857 23.2961 12.7505 23.885L11.3255 25.185C11.1578 25.3392 11.0474 25.5457 11.0124 25.7708C10.9773 25.9958 11.0197 26.2261 11.1325 26.424L12.9565 29.575C13.0706 29.7727 13.2488 29.9254 13.4616 30.0078C13.6745 30.0902 13.9091 30.0973 14.1265 30.028L15.9635 29.443C16.4408 29.7946 16.9556 30.0921 17.4985 30.33L17.9055 32.214C17.9543 32.4368 18.0778 32.6362 18.2555 32.7792C18.4332 32.9221 18.6545 33 18.8825 33ZM17.8701 20.1716C18.6202 19.4214 19.6377 19 20.6985 19C21.7594 19 22.7768 19.4214 23.5269 20.1716C24.2771 20.9217 24.6985 21.9391 24.6985 23C24.6985 24.0609 24.2771 25.0783 23.5269 25.8284C22.7768 26.5786 21.7594 27 20.6985 27C19.6377 27 18.6202 26.5786 17.8701 25.8284C17.1199 25.0783 16.6985 24.0609 16.6985 23C16.6985 21.9391 17.1199 20.9217 17.8701 20.1716Z" fill="#FFFADE"/>
</svg>
