<svg width="24" height="32" viewBox="0 0 24 32" fill="none" xmlns="http://www.w3.org/2000/svg">
<path d="M7.60382 24.745C7.60382 24.745 6.37982 25.458 8.47282 25.697C11.0088 25.989 12.3058 25.948 15.0978 25.416C15.0978 25.416 15.8308 25.88 16.8578 26.281C10.5928 28.964 2.68082 26.12 7.60282 24.745H7.60382ZM6.83682 21.245C6.83682 21.245 5.46182 22.26 7.55582 22.473C10.2708 22.754 12.4048 22.781 16.1078 22.068C16.1078 22.068 16.6188 22.584 17.4268 22.869C9.85382 25.082 1.41582 23.041 6.83782 21.245H6.83682ZM13.2898 15.303C14.8308 17.079 12.8828 18.678 12.8828 18.678C12.8828 18.678 16.7998 16.651 15.0028 14.121C13.3218 11.756 12.0298 10.585 19.0078 6.537C19.0078 6.537 8.05482 9.272 13.2888 15.304L13.2898 15.303ZM21.5718 27.339C21.5718 27.339 22.4788 28.083 20.5768 28.662C16.9618 29.755 5.52982 30.083 2.35282 28.703C1.21282 28.208 3.35282 27.516 4.02482 27.375C4.72782 27.219 5.12882 27.251 5.12882 27.251C3.85782 26.355 -3.07918 29.006 1.60382 29.766C14.3798 31.839 24.8888 28.834 21.5718 27.339ZM8.19182 17.615C8.19182 17.615 2.37482 18.995 6.12882 19.495C7.71782 19.708 10.8798 19.662 13.8278 19.412C16.2328 19.208 18.6508 18.776 18.6508 18.776C18.6508 18.776 17.8018 19.14 17.1868 19.563C11.2798 21.115 -0.130183 20.391 3.15582 18.803C5.93182 17.464 8.19182 17.615 8.19182 17.615ZM18.6238 23.448C24.6238 20.323 21.8478 17.328 19.9158 17.735C19.4408 17.828 19.2278 17.918 19.2278 17.918C19.2278 17.918 19.3998 17.641 19.7388 17.522C23.5718 16.173 26.5198 21.495 18.5038 23.605C18.5038 23.6 18.5988 23.522 18.6238 23.449V23.448ZM15.0038 0C15.0038 0 18.3278 3.323 11.8478 8.437C6.65582 12.541 10.6648 14.88 11.8478 17.552C8.81682 14.817 6.59282 12.412 8.08282 10.172C10.2748 6.875 16.3428 5.281 15.0038 0ZM8.77982 31.901C14.5408 32.265 23.3888 31.693 23.6038 28.969C23.6038 28.969 23.1968 30 18.8368 30.822C13.9208 31.749 7.85282 31.639 4.25382 31.046C4.25382 31.046 4.99382 31.655 8.77882 31.901H8.77982Z" fill="#00C6D2"/>
</svg>
