<svg width="25" height="24" viewBox="0 0 25 24" fill="none" xmlns="http://www.w3.org/2000/svg">
<path d="M24.1344 23.4109L23.6264 22.9269C23.3842 22.6061 23.1134 22.3079 22.8174 22.0359L22.8124 22.0319C22.5138 21.7605 22.2034 21.5025 21.8814 21.2579C21.6234 21.0805 21.2688 20.8669 20.8174 20.6169C20.4512 20.4543 20.1593 20.1603 19.9994 19.7929L19.9954 19.7829L19.9474 19.7589C20.1594 19.7379 20.3534 19.6989 20.5394 19.6439L20.5164 19.6499L21.0864 19.4929C21.3224 19.4189 21.5954 19.3709 21.8784 19.3599H21.8844C22.1824 19.3479 22.4634 19.2999 22.7314 19.2209L22.7064 19.2269C22.8358 19.1949 22.9688 19.1585 23.1054 19.1179C23.2421 19.0772 23.3591 19.0409 23.4564 19.0089V18.8399C23.3598 18.6952 23.2428 18.5299 23.1054 18.3439C22.978 18.1698 22.8292 18.0126 22.6624 17.8759L22.6574 17.8719C22.2381 17.5012 21.8038 17.1425 21.3544 16.7959C20.9332 16.4686 20.4956 16.1629 20.0434 15.8799L19.9754 15.8399C19.7146 15.6694 19.4384 15.5238 19.1504 15.4049L19.1164 15.3929C18.8178 15.2715 18.5234 15.1385 18.2334 14.9939C18.129 14.9427 18.0193 14.9028 17.9064 14.8749L17.8954 14.8729C17.7826 14.8504 17.6805 14.791 17.6054 14.7039L17.6044 14.7029C17.4626 14.5145 17.3434 14.3101 17.2494 14.0939L17.2414 14.0739C17.1448 13.8479 17.0401 13.6309 16.9274 13.4229C16.6854 12.9549 16.4514 12.4792 16.2254 11.9959C15.9994 11.5125 15.7824 11.0285 15.5744 10.5439C15.4298 10.2212 15.2968 9.89888 15.1754 9.57688C15.0527 9.24865 14.8983 8.93316 14.7144 8.63488L14.7274 8.65788C14.3289 7.97467 13.8842 7.31947 13.3964 6.69688L13.4244 6.73488C12.9781 6.16954 12.4904 5.63809 11.9654 5.14488L11.9574 5.13788C11.4412 4.6535 10.8962 4.20068 10.3254 3.78188L10.2764 3.74688C9.67909 3.31288 9.02575 2.88555 8.31642 2.46488C8.0149 2.28902 7.69001 2.15671 7.35142 2.07188L7.32542 2.06588L6.21242 1.78788L5.58342 1.73988C5.37408 1.72388 5.16442 1.71588 4.95442 1.71588C4.8128 1.64176 4.68249 1.54782 4.56742 1.43688C4.4562 1.33108 4.33829 1.23255 4.21442 1.14188L4.20442 1.13488C3.55484 0.760042 2.87068 0.448606 2.16142 0.204881L2.07642 0.178881C1.90002 0.0779623 1.70319 0.0180135 1.50049 0.003473C1.29779 -0.0110675 1.09441 0.0201727 0.905418 0.0948805L0.914418 0.0918805C0.728314 0.164862 0.560587 0.277973 0.423177 0.423161C0.285767 0.568349 0.182053 0.742044 0.119418 0.931881L0.116418 0.941881C0.0103012 1.19671 -0.0241755 1.47569 0.0167124 1.74869C0.0576003 2.02168 0.172299 2.27832 0.348418 2.49088L0.346418 2.48788C0.709085 2.97121 0.987085 3.35121 1.18042 3.62788C1.32508 3.82188 1.47442 4.02355 1.62842 4.23288C1.76942 4.42088 1.89442 4.63588 1.99542 4.86288L2.00342 4.88388C2.05942 5.00288 2.10842 5.14488 2.14442 5.29088L2.14742 5.30688C2.17942 5.44421 2.21975 5.59355 2.26842 5.75488C2.41308 6.12555 2.55009 6.50555 2.67942 6.89488C2.82042 7.31988 2.97642 7.67988 3.15742 8.02288L3.13842 7.98288C3.23508 8.16021 3.33208 8.33355 3.42942 8.50288C3.52675 8.67221 3.63142 8.83755 3.74342 8.99888C3.80693 9.09471 3.88885 9.17697 3.98442 9.24088L3.98742 9.24288C4.0375 9.2788 4.07874 9.32566 4.10802 9.37989C4.1373 9.43412 4.15385 9.4943 4.15642 9.55588V9.55688C4.03843 9.73214 3.96404 9.93305 3.93942 10.1429L3.93842 10.1489C3.90704 10.3844 3.85586 10.6169 3.78542 10.8439L3.79342 10.8139C3.55818 11.5341 3.43969 12.2873 3.44242 13.0449C3.44242 13.3029 3.45542 13.5569 3.48242 13.8079L3.47942 13.7769C3.53942 14.7349 3.82842 15.6149 4.29142 16.3769L4.27742 16.3519C4.47442 16.6469 4.68542 16.9039 4.91842 17.1389C5.05378 17.2911 5.23613 17.3938 5.43651 17.4306C5.63689 17.4674 5.84381 17.4361 6.02442 17.3419L6.01942 17.3439C6.19271 17.2828 6.3439 17.1715 6.45378 17.0243C6.56365 16.877 6.62722 16.7004 6.63642 16.5169V16.5149C6.68442 16.0409 6.75642 15.6169 6.85542 15.2029L6.84242 15.2699C6.86776 15.2024 6.88063 15.1309 6.88042 15.0589L6.87842 15.0139V15.0159C6.87042 14.9432 6.91475 14.8745 7.01142 14.8099V14.8579C7.10809 15.0839 7.20875 15.3095 7.31342 15.5349C7.41809 15.7602 7.52675 15.9859 7.63942 16.2119C7.93442 16.6609 8.24742 17.0529 8.59142 17.4139L8.58842 17.4109C8.93062 17.7804 9.30808 18.1157 9.71542 18.4119L9.73742 18.4269C9.94942 18.5889 10.1354 18.7639 10.3034 18.9549L10.3074 18.9589C10.4654 19.1449 10.6544 19.2979 10.8674 19.4129L10.8774 19.4179V19.3939H10.9254C10.8875 19.309 10.8247 19.2375 10.7454 19.1889L10.7434 19.1879C10.6701 19.1474 10.5996 19.102 10.5324 19.0519L10.5374 19.0549C10.3928 18.9102 10.2434 18.7489 10.0894 18.5709C9.93542 18.3929 9.79442 18.2235 9.66642 18.0629C9.32775 17.5949 9.00475 17.1059 8.69742 16.5959C8.39009 16.0859 8.09975 15.5675 7.82642 15.0409C7.69708 14.7829 7.57208 14.5169 7.45142 14.2429C7.33075 13.9689 7.21375 13.7029 7.10042 13.4449C7.04911 13.34 7.01662 13.227 7.00442 13.1109V13.1059C7.00172 13.051 6.98482 12.9977 6.95538 12.9512C6.92593 12.9048 6.88494 12.8668 6.83642 12.8409L6.83442 12.8399C6.71993 13.0367 6.58302 13.2196 6.42642 13.3849L6.42742 13.3839C6.26681 13.5531 6.13747 13.7495 6.04542 13.9639L6.04042 13.9769C5.89073 14.3462 5.79346 14.7346 5.75142 15.1309L5.74942 15.1499C5.70142 15.5772 5.65308 16.0165 5.60442 16.4679L5.55642 16.4919L5.53242 16.5159C5.40724 16.4908 5.28927 16.438 5.18718 16.3613C5.08508 16.2846 5.00145 16.1861 4.94242 16.0729L4.94042 16.0679C4.81909 15.8339 4.71042 15.6039 4.61442 15.3779C4.35246 14.6925 4.2094 13.9674 4.19142 13.2339V13.2249C4.13948 12.4411 4.23653 11.6545 4.47742 10.9069L4.46542 10.9509C4.51342 10.7735 4.61808 10.4749 4.77942 10.0549C4.94075 9.63488 4.97308 9.34455 4.87642 9.18388C4.82872 9.02486 4.73682 8.88268 4.61142 8.77388L4.61042 8.77288C4.49089 8.66936 4.37894 8.55741 4.27542 8.43788L4.27242 8.43388C4.15975 8.27121 4.05108 8.09788 3.94642 7.91388C3.84175 7.72988 3.74909 7.54855 3.66842 7.36988C3.48221 6.92926 3.3239 6.47737 3.19442 6.01688L3.17242 5.92788C3.03013 5.41333 2.84757 4.91078 2.62642 4.42488L2.65242 4.48888C2.54896 4.25143 2.41807 4.0269 2.26242 3.81988L2.26842 3.82788C2.10575 3.61055 1.96042 3.40488 1.83242 3.21088C1.66975 3.00155 1.50842 2.79988 1.34842 2.60588C1.18169 2.40394 1.03875 2.18349 0.922418 1.94888L0.913418 1.92888C0.862253 1.82442 0.822362 1.7148 0.794418 1.60188L0.792418 1.59088C0.775238 1.53407 0.770722 1.47419 0.779188 1.41544C0.787654 1.3567 0.808896 1.30053 0.841418 1.25088L0.840418 1.25288C0.85111 1.19881 0.876349 1.14867 0.913418 1.10788C0.953905 1.07169 1.00324 1.04686 1.05642 1.03588H1.05842C1.13732 0.984711 1.22802 0.954625 1.32186 0.948498C1.41569 0.94237 1.50954 0.960405 1.59442 1.00088L1.59142 0.999881C1.81042 1.06188 1.98742 1.12388 2.16042 1.19488L2.12442 1.18188C2.43042 1.31121 2.71275 1.43621 2.97142 1.55688C3.26942 1.69888 3.52342 1.84888 3.76342 2.01588L3.74542 2.00388C3.87475 2.08455 4.00375 2.17321 4.13242 2.26988C4.26109 2.36655 4.39809 2.46355 4.54342 2.56088H4.88242C5.14042 2.56088 5.41442 2.57321 5.70442 2.59788C5.99742 2.62088 6.26842 2.67588 6.52642 2.76188L6.50242 2.75488C6.98342 2.89788 7.39642 3.06688 7.78842 3.26988L7.74742 3.25088C8.14275 3.45221 8.51775 3.66588 8.87242 3.89188C9.46142 4.25888 9.97042 4.63488 10.4494 5.04588L10.4324 5.03188C10.9324 5.45988 11.3864 5.89888 11.8124 6.36288L11.8224 6.37488C12.2384 6.82888 12.6354 7.32188 12.9984 7.83888L13.0294 7.88588C13.3634 8.35788 13.7004 8.90388 14.0034 9.46988L14.0454 9.55488C14.1347 9.7284 14.2129 9.90743 14.2794 10.0909L14.2904 10.1239C14.3551 10.3092 14.4274 10.4992 14.5074 10.6939C14.6848 11.0972 14.8748 11.5042 15.0774 11.9149C15.2801 12.3255 15.4701 12.7249 15.6474 13.1129L16.1794 14.2739C16.3664 14.6799 16.5754 15.0299 16.8184 15.3529L16.8074 15.3379C17.0104 15.5549 17.2814 15.7069 17.5854 15.7599L17.5934 15.7609C17.9614 15.8529 18.2714 15.9569 18.5714 16.0799L18.5244 16.0629C18.6674 16.1279 18.8514 16.1969 19.0404 16.2579L19.0804 16.2689C19.2924 16.3339 19.4764 16.4199 19.6454 16.5279L19.6364 16.5229C19.9634 16.7059 20.2404 16.8859 20.5044 17.0819L20.4834 17.0669C20.7574 17.2682 21.0314 17.4582 21.3054 17.6369C21.4348 17.7335 21.6518 17.8745 21.9564 18.0599C22.2611 18.2452 22.4224 18.4185 22.4404 18.5799C21.8277 18.5586 21.2143 18.5877 20.6064 18.6669L20.6624 18.6609C20.1547 18.7268 19.6576 18.8579 19.1834 19.0509L19.2234 19.0369C19.0977 19.0902 18.968 19.1333 18.8354 19.1659L18.8164 19.1699C18.7475 19.1798 18.6839 19.2124 18.6357 19.2626C18.5876 19.3128 18.5575 19.3777 18.5504 19.4469V19.4479C18.6114 19.5239 18.6604 19.6119 18.6934 19.7079L18.6954 19.7139C18.7294 19.8159 18.7704 19.9039 18.8204 19.9859L18.8174 19.9799C18.9364 20.1909 19.0644 20.3729 19.2084 20.5409L19.2044 20.5359C19.3454 20.7099 19.5044 20.8609 19.6804 20.9899L19.6874 20.9949C19.8501 21.1242 20.0194 21.2572 20.1954 21.3939C20.3564 21.5199 20.5384 21.6439 20.7274 21.7559L20.7514 21.7689C21.0354 21.9429 21.3654 22.1089 21.7094 22.2479L21.7554 22.2639C22.1294 22.4139 22.4504 22.5879 22.7484 22.7949L22.7324 22.7839C22.9264 22.8965 23.1198 23.0215 23.3124 23.1589C23.5051 23.2962 23.6904 23.4292 23.8684 23.5579C23.9414 23.6299 24.0054 23.7099 24.0594 23.7969L24.0624 23.8019C24.1546 23.9083 24.2828 23.977 24.4224 23.9949H24.4254V23.9469C24.337 23.88 24.2725 23.7863 24.2414 23.6799L24.2404 23.6759C24.2175 23.5796 24.1797 23.4875 24.1284 23.4029L24.1304 23.4069L24.1344 23.4109ZM5.55842 4.20588C5.42908 4.20588 5.30808 4.20988 5.19542 4.21788C5.0855 4.22495 4.97694 4.24612 4.87242 4.28088L4.88142 4.27788V4.30188H4.92942C4.99408 4.39855 5.07542 4.50721 5.17342 4.62788C5.27142 4.74855 5.36009 4.86555 5.43942 4.97888L5.82642 5.77688L5.87442 5.75288C5.98703 5.67181 6.0744 5.56052 6.12642 5.43188L6.12842 5.42688C6.18042 5.28788 6.21042 5.12588 6.21042 4.95788L6.20942 4.90388V4.90688C6.16407 4.86278 6.12744 4.81054 6.10142 4.75288L6.10042 4.74988L6.01942 4.56788C5.96755 4.48504 5.89338 4.4185 5.80542 4.37588L5.80242 4.37488C5.71256 4.33197 5.63018 4.27491 5.55842 4.20588Z" fill="#00C6D2"/>
</svg>
