<svg width="24" height="24" viewBox="0 0 24 24" fill="none" xmlns="http://www.w3.org/2000/svg">
<path d="M11.994 0C11.629 0 11.264 0.0830769 10.949 0.249231L1.04 5.52923C0.4 5.87077 0 6.51692 0 7.2V16.7815C0 17.4738 0.4 18.1108 1.04 18.4523L3.64 19.8369C4.9 20.4092 5.35 20.4092 5.92 20.4092C7.79 20.4092 8.86 19.3662 8.86 17.5569V7.67077C8.86 7.59977 8.82945 7.53168 8.77506 7.48148C8.72068 7.43128 8.64691 7.40308 8.57 7.40308H7.32C7.28177 7.40258 7.24381 7.40916 7.20839 7.42244C7.17296 7.43572 7.14078 7.45542 7.11374 7.48037C7.0867 7.50533 7.06536 7.53504 7.05098 7.56774C7.03659 7.60045 7.02946 7.63548 7.03 7.67077V17.5477C7.03 18.36 6.12 19.1538 4.65 18.48L1.93 17.0308C1.88122 17.0067 1.84052 16.9707 1.81232 16.9268C1.78411 16.8828 1.76948 16.8326 1.77 16.7815V7.20923C1.77 7.09846 1.83 7.00615 1.93 6.95077L11.84 1.67077C11.8864 1.6437 11.9401 1.62932 11.995 1.62932C12.0499 1.62932 12.1036 1.6437 12.15 1.67077L22.06 6.95077C22.16 7.00615 22.22 7.09846 22.22 7.2V16.7815C22.22 16.8831 22.16 16.9846 22.07 17.0308L12.15 22.32C12.102 22.3427 12.0489 22.3545 11.995 22.3545C11.9411 22.3545 11.888 22.3427 11.84 22.32L9.29 20.9262C9.25575 20.9029 9.21519 20.8889 9.17283 20.8856C9.13046 20.8824 9.08794 20.89 9.05 20.9077C8.34 21.2769 8.21 21.3231 7.55 21.5354C7.39 21.5815 7.14 21.6738 7.64 21.9323L10.95 23.7415C11.27 23.9077 11.63 24 11.99 24C12.36 24 12.72 23.9077 13.04 23.7415L22.96 18.4523C23.6 18.1108 24 17.4738 24 16.7815V7.20923C24 6.51692 23.6 5.88 22.96 5.53846L13.04 0.249231C12.724 0.0830769 12.36 0 11.994 0ZM14.66 7.39015C11.83 7.39015 10.14 8.49785 10.14 10.344C10.14 12.3471 11.82 12.8991 14.54 13.1483C17.79 13.4437 18.04 13.8886 18.04 14.4794C18.04 15.4948 17.15 15.9286 15.06 15.9286C12.43 15.9286 11.85 15.3185 11.66 14.1185C11.6503 14.0565 11.6166 13.9999 11.5651 13.9591C11.5136 13.9184 11.4478 13.8963 11.38 13.8969H10.09C10.0157 13.8969 9.94452 13.9242 9.89201 13.9726C9.8395 14.0211 9.81 14.0868 9.81 14.1554C9.81 15.6969 10.72 17.5338 15.06 17.5338C18.2 17.5338 20 16.3892 20 14.3954C20 12.42 18.55 11.8938 15.51 11.5154C12.42 11.1462 12.11 10.9523 12.11 10.2877C12.11 9.73385 12.38 9.00462 14.66 9.00462C16.69 9.00462 17.45 9.41077 17.76 10.6754C17.79 10.7954 17.9 10.8877 18.04 10.8877H19.33C19.41 10.8877 19.48 10.8508 19.54 10.7954C19.5672 10.7684 19.5876 10.7362 19.5997 10.7011C19.6118 10.666 19.6153 10.6288 19.61 10.5923C19.41 8.41385 17.84 7.38923 14.66 7.38923V7.39015Z" fill="#00C6D2"/>
</svg>
