<svg width="28" height="25" viewBox="0 0 28 25" fill="none" xmlns="http://www.w3.org/2000/svg">
<path fill-rule="evenodd" clip-rule="evenodd" d="M5.81583 0C4.2175 0 3.03567 1.56781 3.08933 3.26638C3.1395 4.90088 3.07417 7.01527 2.59933 8.74C2.121 10.4686 1.316 11.5644 0 11.7056V13.2944C1.316 13.4343 2.12217 14.53 2.59817 16.26C3.07417 17.9847 3.1395 20.0991 3.08817 21.7323C3.03567 23.4322 4.2175 25 5.81583 25H22.1865C23.7848 25 24.9667 23.4322 24.913 21.7323C24.8628 20.0991 24.9282 17.9847 25.403 16.26C25.8802 14.53 26.684 13.4356 28 13.2944V11.7056C26.684 11.5644 25.8802 10.4686 25.403 8.74C24.9282 7.01397 24.8628 4.89958 24.913 3.26638C24.9667 1.5665 23.7837 0 22.1865 0H5.81583ZM18.9817 15.3891C18.9817 17.7297 17.4242 19.1485 14.84 19.1485H10.4405C10.3146 19.1485 10.1938 19.0924 10.1047 18.9926C10.0157 18.8928 9.96567 18.7574 9.96567 18.6163V6.38239C9.96597 6.24148 10.0161 6.10645 10.1052 6.00692C10.1942 5.9074 10.3148 5.85151 10.4405 5.85151H14.8155C16.9703 5.85151 18.3855 7.15911 18.3855 9.16889C18.3855 10.5785 17.4335 11.8403 16.2213 12.0626V12.1358C17.8722 12.3385 18.9828 13.62 18.9828 15.3891H18.9817ZM14.3617 7.537H11.8533V11.5095H13.9662C15.5995 11.5095 16.5002 10.772 16.5002 9.45395C16.5002 8.21957 15.7255 7.537 14.3617 7.537ZM11.8533 13.0852V17.4617H14.455C16.1548 17.4617 17.0567 16.6967 17.0567 15.2597C17.0567 13.8213 16.1303 13.0852 14.3453 13.0852H11.8533Z" fill="#00C6D2"/>
</svg>
