<svg width="42" height="42" viewBox="0 0 42 42" fill="none" xmlns="http://www.w3.org/2000/svg">
<path d="M37.8 42H4.2C3.08609 42 2.0178 41.5083 1.23015 40.6332C0.442499 39.758 0 38.571 0 37.3333V4.66667C0 3.42899 0.442499 2.242 1.23015 1.36683C2.0178 0.491665 3.08609 0 4.2 0H37.8C38.9139 0 39.9822 0.491665 40.7698 1.36683C41.5575 2.242 42 3.42899 42 4.66667V37.3333C42 38.571 41.5575 39.758 40.7698 40.6332C39.9822 41.5083 38.9139 42 37.8 42ZM4.2 9.33333V37.3333H37.8V9.33333H4.2ZM26.6847 31.983L23.7174 28.686L28.5306 23.3333L23.7153 17.983L26.6847 14.6837L34.4694 23.3333L26.6868 31.9807L26.6847 31.983ZM15.3153 31.983L7.5306 23.3333L15.3153 14.6837L18.2847 17.983L13.4694 23.3333L18.2826 28.6837L15.3153 31.9807V31.983Z" fill="#FFFADE"/>
</svg>
